<svg xmlns="http://www.w3.org/2000/svg" viewBox="0 0 208.92 192.99"><defs><style>.cls-1{fill:#2b2b2b;}.cls-2{fill:#161616;}.cls-3{fill:#fff;}.cls-4{font-size:28.94px;fill:#f9f9f9;font-family:Impact;}</style></defs><g id="Camada_2" data-name="Camada 2"><g id="Layer_1" data-name="Layer 1"><path class="cls-1" d="M84.64,1.18a0,0,0,0,0,0,0s0,0,0,0a0,0,0,0,0,0,0Z"/><path class="cls-1" d="M90.28,1.18h0a0,0,0,0,0,0,0,0,0,0,0,0,0,0Z"/><path class="cls-1" d="M95.92,1.18h0a0,0,0,0,0,0,0s0,0,0,0A0,0,0,0,0,95.92,1.18Z"/><path class="cls-1" d="M101.56,1.18h0a0,0,0,0,0,0,0s0,0,0,0A0,0,0,0,0,101.56,1.18Z"/><path class="cls-1" d="M107.2,1.18h0a0,0,0,0,0,0,0,0,0,0,0,0,0,0Z"/><path class="cls-1" d="M112.85,1.18h0a0,0,0,0,0,0,0,0,0,0,0,0,0,0Z"/><path class="cls-1" d="M62.07,6.82s0,0,0,0l0,0s0,0,0,0S62.06,6.82,62.07,6.82Z"/><path class="cls-1" d="M67.71,6.82s0,0,0,0l0,0v0A0,0,0,0,0,67.71,6.82Z"/><path class="cls-1" d="M73.36,6.82a0,0,0,0,0,0,0v0a0,0,0,0,0,0,0S73.35,6.82,73.36,6.82Z"/><path class="cls-1" d="M79,6.82s0,0,0,0,0,0,0,0a0,0,0,0,0,0,0S79,6.82,79,6.82Z"/><circle class="cls-1" cx="84.64" cy="6.81" r="0.03"/><circle class="cls-1" cx="90.28" cy="6.81" r="0.03"/><path class="cls-1" d="M95.92,6.84a0,0,0,1,0,0-.06,0,0,0,0,0,0,.06A0,0,0,0,0,95.92,6.84Z"/><circle class="cls-1" cx="101.56" cy="6.81" r="0.03"/><circle class="cls-1" cx="107.2" cy="6.81" r="0.03"/><circle class="cls-1" cx="112.85" cy="6.81" r="0.03"/><path class="cls-1" d="M118.49,6.82s0,0,0,0,0,0,0,0l0,0S118.48,6.82,118.49,6.82Z"/><path class="cls-1" d="M124.13,6.82s0,0,0,0,0,0,0,0l0,0S124.12,6.82,124.13,6.82Z"/><path class="cls-1" d="M129.77,6.82s0,0,0,0l0,0a0,0,0,0,0,0,0S129.76,6.82,129.77,6.82Z"/><path class="cls-1" d="M50.79,12.46s0,0,0,0,0,0,0,0l0,0S50.78,12.46,50.79,12.46Z"/><path class="cls-1" d="M56.43,12.46s0,0,0,0l0,0s0,0,0,0S56.42,12.46,56.43,12.46Z"/><path class="cls-1" d="M62.07,12.48a0,0,0,1,0,0-.06,0,0,0,0,0,0,.06Z"/><path class="cls-1" d="M67.71,12.48s0,0,0,0,0,0,0,0a0,0,0,1,0,0,.06Z"/><path class="cls-1" d="M73.36,12.5a.05.05,0,0,0,0-.1,0,0,0,0,0,0,.1Z"/><path class="cls-1" d="M79,12.51a.06.06,0,0,0,.06-.06.06.06,0,0,0-.06-.06s-.07,0-.07.06A.07.07,0,0,0,79,12.51Z"/><path class="cls-1" d="M84.64,12.53a.08.08,0,1,0-.08-.08A.09.09,0,0,0,84.64,12.53Z"/><path class="cls-1" d="M90.28,12.53a.08.08,0,1,0-.08-.08A.09.09,0,0,0,90.28,12.53Z"/><path class="cls-1" d="M95.92,12.53a.08.08,0,1,0-.08-.08A.09.09,0,0,0,95.92,12.53Z"/><path class="cls-1" d="M101.56,12.53a.08.08,0,1,0,0-.16.08.08,0,0,0,0,.16Z"/><path class="cls-1" d="M107.2,12.53a.08.08,0,1,0,0-.16.08.08,0,0,0,0,.16Z"/><path class="cls-1" d="M112.85,12.51a.06.06,0,0,0,.06-.06.06.06,0,0,0-.06-.06s-.07,0-.07.06A.07.07,0,0,0,112.85,12.51Z"/><path class="cls-1" d="M118.49,12.5a.05.05,0,0,0,0-.1,0,0,0,1,0,0,.1Z"/><path class="cls-1" d="M124.13,12.5a.05.05,0,1,0,0-.05A0,0,0,0,0,124.13,12.5Z"/><path class="cls-1" d="M129.77,12.48a0,0,0,1,0,0-.06,0,0,0,0,0,0,.06A0,0,0,0,0,129.77,12.48Z"/><path class="cls-1" d="M135.41,12.46s0,0,0,0l0,0s0,0,0,0S135.4,12.46,135.41,12.46Z"/><path class="cls-1" d="M141.05,12.46s0,0,0,0l0,0v0A0,0,0,0,0,141.05,12.46Z"/><path class="cls-1" d="M39.51,18.11a0,0,0,0,0,0,0,0,0,0,0,0,0,0s0,0,0,0A0,0,0,0,0,39.51,18.11Z"/><path class="cls-1" d="M45.15,18.11s0,0,0,0,0,0,0,0,0,0,0,0A0,0,0,0,0,45.15,18.11Z"/><path class="cls-1" d="M50.79,18.12a0,0,0,0,0,0-.06,0,0,0,0,0,0,.06A0,0,0,0,0,50.79,18.12Z"/><path class="cls-1" d="M56.43,18.14a.05.05,0,0,0,0-.1.05.05,0,0,0,0,.1Z"/><circle class="cls-1" cx="62.07" cy="18.09" r="0.06"/><circle class="cls-1" cx="67.71" cy="18.09" r="0.08"/><path class="cls-1" d="M73.36,18.2a.11.11,0,0,0,0-.22.11.11,0,0,0,0,.22Z"/><path class="cls-1" d="M79,18.22a.12.12,0,0,0,.12-.13A.12.12,0,0,0,79,18a.12.12,0,0,0-.13.12A.13.13,0,0,0,79,18.22Z"/><circle class="cls-1" cx="84.64" cy="18.09" r="0.14"/><path class="cls-1" d="M90.28,18.25a.16.16,0,1,0-.16-.16A.16.16,0,0,0,90.28,18.25Z"/><path class="cls-1" d="M95.92,18.25a.16.16,0,1,0,0-.32.16.16,0,0,0,0,.32Z"/><path class="cls-1" d="M101.56,18.25a.16.16,0,1,0,0-.32.16.16,0,0,0,0,.32Z"/><circle class="cls-1" cx="107.2" cy="18.09" r="0.14"/><path class="cls-1" d="M112.85,18.22a.12.12,0,0,0,.12-.13.12.12,0,0,0-.12-.12.12.12,0,0,0-.13.12A.13.13,0,0,0,112.85,18.22Z"/><circle class="cls-1" cx="118.49" cy="18.09" r="0.11"/><path class="cls-1" d="M124.13,18.18a.09.09,0,1,0-.09-.09A.09.09,0,0,0,124.13,18.18Z"/><circle class="cls-1" cx="129.77" cy="18.09" r="0.06"/><circle class="cls-1" cx="135.41" cy="18.09" r="0.05"/><circle class="cls-1" cx="141.05" cy="18.09" r="0.03"/><path class="cls-1" d="M146.7,18.11a0,0,0,0,0,0,0,0,0,0,0,0,0,0s0,0,0,0A0,0,0,0,0,146.7,18.11Z"/><path class="cls-1" d="M152.34,18.11s0,0,0,0,0,0,0,0,0,0,0,0A0,0,0,0,0,152.34,18.11Z"/><path class="cls-1" d="M33.86,23.75l0,0s0,0,0,0a0,0,0,0,0,0,0Z"/><circle class="cls-1" cx="39.51" cy="23.73" r="0.02"/><circle class="cls-1" cx="45.15" cy="23.73" r="0.03"/><path class="cls-1" d="M50.79,23.79a.06.06,0,0,0,.06-.06.06.06,0,0,0-.06-.06.06.06,0,0,0-.06.06A.05.05,0,0,0,50.79,23.79Z"/><path class="cls-1" d="M56.43,23.83a.1.1,0,0,0,.09-.1.09.09,0,1,0-.18,0A.1.1,0,0,0,56.43,23.83Z"/><path class="cls-1" d="M62.07,23.86a.13.13,0,0,0,.13-.13.12.12,0,0,0-.13-.12.12.12,0,0,0-.12.12A.12.12,0,0,0,62.07,23.86Z"/><circle class="cls-1" cx="67.71" cy="23.73" r="0.17"/><path class="cls-1" d="M73.36,23.94a.21.21,0,0,0,.2-.21.2.2,0,0,0-.2-.2.2.2,0,0,0-.21.2A.21.21,0,0,0,73.36,23.94Z"/><path class="cls-1" d="M79,24a.23.23,0,0,0,.23-.24A.23.23,0,0,0,79,23.5a.23.23,0,0,0-.24.23A.24.24,0,0,0,79,24Z"/><circle class="cls-1" cx="84.64" cy="23.73" r="0.27"/><circle class="cls-1" cx="90.28" cy="23.73" r="0.28"/><path class="cls-1" d="M95.92,24a.27.27,0,0,0,.28-.28.28.28,0,0,0-.28-.28.29.29,0,0,0-.28.28A.28.28,0,0,0,95.92,24Z"/><circle class="cls-1" cx="101.56" cy="23.73" r="0.28"/><path class="cls-1" d="M107.2,24a.27.27,0,1,0,0-.53.27.27,0,0,0,0,.53Z"/><path class="cls-1" d="M112.85,24a.23.23,0,0,0,.23-.24.23.23,0,0,0-.23-.23.23.23,0,0,0-.24.23A.24.24,0,0,0,112.85,24Z"/><path class="cls-1" d="M118.49,23.94a.21.21,0,0,0,.2-.21.2.2,0,0,0-.2-.2.21.21,0,0,0-.21.2A.22.22,0,0,0,118.49,23.94Z"/><path class="cls-1" d="M124.13,23.9a.17.17,0,0,0,.17-.17.18.18,0,0,0-.17-.17.17.17,0,0,0-.17.17A.16.16,0,0,0,124.13,23.9Z"/><path class="cls-1" d="M129.77,23.86a.13.13,0,0,0,.13-.13.12.12,0,0,0-.13-.12.12.12,0,0,0-.12.12A.12.12,0,0,0,129.77,23.86Z"/><path class="cls-1" d="M135.41,23.83a.11.11,0,0,0,.1-.1.1.1,0,0,0-.1-.09.09.09,0,0,0-.09.09A.1.1,0,0,0,135.41,23.83Z"/><path class="cls-1" d="M141.05,23.79s.07,0,.07-.06a.07.07,0,0,0-.07-.06.06.06,0,0,0-.06.06A.06.06,0,0,0,141.05,23.79Z"/><path class="cls-1" d="M146.7,23.78a0,0,0,0,0,0-.05,0,0,0,0,0,0,0,0,0,0,0,0,0,0A0,0,0,0,0,146.7,23.78Z"/><path class="cls-1" d="M152.34,23.75s0,0,0,0,0,0,0,0,0,0,0,0Z"/><path class="cls-1" d="M158,23.75s0,0,0,0,0,0,0,0,0,0,0,0Z"/><path class="cls-1" d="M28.22,29.39a0,0,0,0,0,0,0h0a0,0,0,0,0,0,0S28.21,29.39,28.22,29.39Z"/><path class="cls-1" d="M33.86,29.39l0,0h0Z"/><path class="cls-1" d="M39.51,29.42a0,0,0,0,0,0-.05,0,0,0,0,0,0,0,0,0,0,0,0,0,0A0,0,0,0,0,39.51,29.42Z"/><circle class="cls-1" cx="45.15" cy="29.37" r="0.08"/><path class="cls-1" d="M50.79,29.5a.12.12,0,0,0,.12-.13.12.12,0,0,0-.12-.12.12.12,0,0,0-.13.12A.13.13,0,0,0,50.79,29.5Z"/><circle class="cls-1" cx="56.43" cy="29.37" r="0.17"/><circle class="cls-1" cx="62.07" cy="29.37" r="0.22"/><circle class="cls-1" cx="67.71" cy="29.37" r="0.28"/><path class="cls-1" d="M73.36,29.72a.35.35,0,0,0,.34-.35.34.34,0,0,0-.34-.34.35.35,0,0,0-.35.34A.35.35,0,0,0,73.36,29.72Z"/><circle class="cls-1" cx="79" cy="29.37" r="0.39"/><circle class="cls-1" cx="84.64" cy="29.37" r="0.42"/><path class="cls-1" d="M90.28,29.83a.46.46,0,0,0,.45-.46.45.45,0,1,0-.9,0A.46.46,0,0,0,90.28,29.83Z"/><path class="cls-1" d="M95.92,29.84a.47.47,0,1,0-.47-.47A.47.47,0,0,0,95.92,29.84Z"/><path class="cls-1" d="M101.56,29.83a.47.47,0,0,0,.46-.46.46.46,0,0,0-.46-.45.45.45,0,0,0-.45.45A.46.46,0,0,0,101.56,29.83Z"/><path class="cls-1" d="M107.2,29.81a.44.44,0,1,0,0-.87.44.44,0,0,0,0,.87Z"/><circle class="cls-1" cx="112.85" cy="29.37" r="0.39"/><path class="cls-1" d="M118.49,29.72a.35.35,0,0,0,.34-.35.34.34,0,0,0-.34-.34.35.35,0,0,0-.35.34A.35.35,0,0,0,118.49,29.72Z"/><circle class="cls-1" cx="124.13" cy="29.37" r="0.28"/><path class="cls-1" d="M129.77,29.61a.24.24,0,0,0,.24-.24.23.23,0,0,0-.24-.23.23.23,0,0,0-.23.23A.23.23,0,0,0,129.77,29.61Z"/><circle class="cls-1" cx="135.41" cy="29.37" r="0.17"/><path class="cls-1" d="M141.05,29.5a.13.13,0,0,0,.13-.13.12.12,0,0,0-.13-.12.12.12,0,0,0-.12.12A.12.12,0,0,0,141.05,29.5Z"/><path class="cls-1" d="M146.7,29.45a.07.07,0,0,0,.07-.08.07.07,0,0,0-.07-.07.07.07,0,0,0-.08.07A.07.07,0,0,0,146.7,29.45Z"/><path class="cls-1" d="M152.34,29.42a0,0,0,0,0,0-.05,0,0,0,0,0,0,0,0,0,0,0,0-.05,0A0,0,0,0,0,152.34,29.42Z"/><circle class="cls-1" cx="157.98" cy="29.37" r="0.03"/><path class="cls-1" d="M163.62,29.39l0,0h0Z"/><path class="cls-1" d="M22.58,35h0a0,0,0,0,0,0,0s0,0,0,0Z"/><path class="cls-1" d="M28.22,35h0a0,0,0,0,0,0,0s0,0,0,0Z"/><path class="cls-1" d="M33.86,35.06a0,0,0,0,0,0,0,0,0,0,0,0,0-.05,0,0,0,0,0,0,.05A0,0,0,0,0,33.86,35.06Z"/><path class="cls-1" d="M39.51,35.09a.07.07,0,0,0,.07-.07.07.07,0,0,0-.07-.08.07.07,0,0,0-.08.08A.07.07,0,0,0,39.51,35.09Z"/><path class="cls-1" d="M45.15,35.16a.14.14,0,0,0,.14-.14A.14.14,0,1,0,45,35,.14.14,0,0,0,45.15,35.16Z"/><path class="cls-1" d="M50.79,35.22A.2.2,0,0,0,51,35a.2.2,0,1,0-.4,0A.2.2,0,0,0,50.79,35.22Z"/><path class="cls-1" d="M56.43,35.28a.27.27,0,1,0-.27-.26A.27.27,0,0,0,56.43,35.28Z"/><path class="cls-1" d="M62.07,35.38a.36.36,0,0,0,.36-.36.36.36,0,1,0-.72,0A.36.36,0,0,0,62.07,35.38Z"/><path class="cls-1" d="M67.71,35.45a.44.44,0,1,0-.43-.43A.43.43,0,0,0,67.71,35.45Z"/><path class="cls-1" d="M73.36,35.55a.54.54,0,1,0-.54-.53A.53.53,0,0,0,73.36,35.55Z"/><path class="cls-1" d="M79,35.61a.6.6,0,0,0,0-1.19.6.6,0,1,0,0,1.19Z"/><path class="cls-1" d="M84.64,35.67A.66.66,0,1,0,84,35,.66.66,0,0,0,84.64,35.67Z"/><path class="cls-1" d="M90.28,35.7A.68.68,0,0,0,91,35a.69.69,0,0,0-1.38,0A.68.68,0,0,0,90.28,35.7Z"/><path class="cls-1" d="M95.92,35.72a.71.71,0,1,0-.7-.7A.7.7,0,0,0,95.92,35.72Z"/><path class="cls-1" d="M101.56,35.7a.68.68,0,0,0,.69-.68.69.69,0,1,0-1.38,0A.68.68,0,0,0,101.56,35.7Z"/><path class="cls-1" d="M107.2,35.67a.66.66,0,1,0-.65-.65A.65.65,0,0,0,107.2,35.67Z"/><path class="cls-1" d="M112.85,35.63a.62.62,0,0,0,.61-.61.61.61,0,0,0-.61-.61.61.61,0,0,0-.61.61A.61.61,0,0,0,112.85,35.63Z"/><path class="cls-1" d="M118.49,35.55A.54.54,0,1,0,118,35,.53.53,0,0,0,118.49,35.55Z"/><path class="cls-1" d="M124.13,35.47a.46.46,0,1,0-.45-.45A.45.45,0,0,0,124.13,35.47Z"/><path class="cls-1" d="M129.77,35.38a.36.36,0,0,0,.36-.36.36.36,0,1,0-.72,0A.36.36,0,0,0,129.77,35.38Z"/><path class="cls-1" d="M135.41,35.3a.29.29,0,0,0,0-.57.29.29,0,0,0,0,.57Z"/><path class="cls-1" d="M141.05,35.22a.2.2,0,0,0,.21-.2.21.21,0,0,0-.21-.21.2.2,0,0,0-.2.21A.2.2,0,0,0,141.05,35.22Z"/><path class="cls-1" d="M146.7,35.16a.15.15,0,0,0,.14-.14.15.15,0,1,0-.14.14Z"/><path class="cls-1" d="M152.34,35.11a.09.09,0,0,0,.09-.09.09.09,0,0,0-.09-.1.09.09,0,0,0-.1.1A.09.09,0,0,0,152.34,35.11Z"/><path class="cls-1" d="M158,35.06s.05,0,.05,0A.05.05,0,0,0,158,35a0,0,0,0,0,0,.05A0,0,0,0,0,158,35.06Z"/><path class="cls-1" d="M163.62,35.05a0,0,0,0,0,0,0s0,0,0,0,0,0,0,0A0,0,0,0,0,163.62,35.05Z"/><path class="cls-1" d="M169.26,35h0a0,0,0,0,0,0,0s0,0,0,0Z"/><path class="cls-1" d="M16.94,40.67s0,0,0,0l0,0,0,0S16.93,40.67,16.94,40.67Z"/><path class="cls-1" d="M22.58,40.67s0,0,0,0l0,0s0,0,0,0S22.57,40.67,22.58,40.67Z"/><path class="cls-1" d="M28.22,40.7a0,0,0,0,0,.05,0,0,0,0,0,0-.05,0,0,0,0,0,0,0,0A0,0,0,0,0,28.22,40.7Z"/><circle class="cls-1" cx="33.86" cy="40.66" r="0.08"/><circle class="cls-1" cx="39.51" cy="40.66" r="0.14"/><circle class="cls-1" cx="45.15" cy="40.66" r="0.22"/><path class="cls-1" d="M50.79,41a.32.32,0,1,0-.31-.31A.31.31,0,0,0,50.79,41Z"/><circle class="cls-1" cx="56.43" cy="40.66" r="0.42"/><circle class="cls-1" cx="62.07" cy="40.66" r="0.53"/><path class="cls-1" d="M67.71,41.31a.66.66,0,1,0-.65-.65A.65.65,0,0,0,67.71,41.31Z"/><path class="cls-1" d="M73.36,41.42a.77.77,0,1,0-.77-.76A.76.76,0,0,0,73.36,41.42Z"/><path class="cls-1" d="M79,41.53a.88.88,0,1,0-.88-.87A.87.87,0,0,0,79,41.53Z"/><path class="cls-1" d="M84.64,41.61a1,1,0,0,0,0-1.91,1,1,0,1,0,0,1.91Z"/><path class="cls-1" d="M90.28,41.67a1,1,0,1,0-1-1A1,1,0,0,0,90.28,41.67Z"/><path class="cls-1" d="M95.92,41.69a1,1,0,1,0-1-1A1,1,0,0,0,95.92,41.69Z"/><path class="cls-1" d="M101.56,41.67a1,1,0,1,0-1-1A1,1,0,0,0,101.56,41.67Z"/><path class="cls-1" d="M107.2,41.61a1,1,0,1,0-1-1A1,1,0,0,0,107.2,41.61Z"/><path class="cls-1" d="M112.85,41.53a.88.88,0,1,0-.88-.87A.87.87,0,0,0,112.85,41.53Z"/><path class="cls-1" d="M118.49,41.44a.79.79,0,1,0-.78-.78A.78.78,0,0,0,118.49,41.44Z"/><path class="cls-1" d="M124.13,41.31a.66.66,0,1,0-.66-.65A.66.66,0,0,0,124.13,41.31Z"/><path class="cls-1" d="M129.77,41.2a.55.55,0,1,0-.55-.54A.55.55,0,0,0,129.77,41.2Z"/><circle class="cls-1" cx="135.41" cy="40.66" r="0.42"/><path class="cls-1" d="M141.05,41a.32.32,0,1,0-.31-.31A.31.31,0,0,0,141.05,41Z"/><path class="cls-1" d="M146.7,40.88a.22.22,0,1,0-.22-.22A.21.21,0,0,0,146.7,40.88Z"/><path class="cls-1" d="M152.34,40.81a.15.15,0,0,0,.15-.15.16.16,0,0,0-.15-.16.16.16,0,0,0-.16.16A.16.16,0,0,0,152.34,40.81Z"/><path class="cls-1" d="M158,40.75a.09.09,0,0,0,.09-.09.1.1,0,0,0-.09-.1.11.11,0,0,0-.1.1A.1.1,0,0,0,158,40.75Z"/><path class="cls-1" d="M163.62,40.7a0,0,0,0,0,0,0,0,0,0,1,0-.1,0A0,0,0,0,0,163.62,40.7Z"/><path class="cls-1" d="M169.26,40.67s0,0,0,0a0,0,0,0,0,0,0s0,0,0,0S169.25,40.67,169.26,40.67Z"/><path class="cls-1" d="M174.9,40.67s0,0,0,0l0,0s0,0,0,0S174.89,40.67,174.9,40.67Z"/><path class="cls-1" d="M16.94,46.31s0,0,0,0l0,0,0,0S16.93,46.31,16.94,46.31Z"/><path class="cls-1" d="M22.58,46.33a0,0,0,0,0,0-.06,0,0,0,0,0,0,.06A0,0,0,0,0,22.58,46.33Z"/><path class="cls-1" d="M28.22,46.38a.08.08,0,1,0,0-.16.08.08,0,0,0,0,.16Z"/><circle class="cls-1" cx="33.86" cy="46.3" r="0.14"/><circle class="cls-1" cx="39.51" cy="46.3" r="0.22"/><circle class="cls-1" cx="45.15" cy="46.3" r="0.33"/><path class="cls-1" d="M50.79,46.75a.45.45,0,0,0,.45-.45.45.45,0,1,0-.9,0A.45.45,0,0,0,50.79,46.75Z"/><path class="cls-1" d="M56.43,46.89a.59.59,0,0,0,.6-.59.6.6,0,0,0-.6-.6.59.59,0,0,0-.59.6A.58.58,0,0,0,56.43,46.89Z"/><circle class="cls-1" cx="62.07" cy="46.3" r="0.75"/><circle class="cls-1" cx="67.71" cy="46.3" r="0.92"/><path class="cls-1" d="M73.36,47.38a1.08,1.08,0,1,0-1.08-1.08A1.08,1.08,0,0,0,73.36,47.38Z"/><circle class="cls-1" cx="79" cy="46.3" r="1.22"/><circle class="cls-1" cx="84.64" cy="46.3" r="1.33"/><path class="cls-1" d="M90.28,47.71a1.41,1.41,0,1,0-1.41-1.41A1.41,1.41,0,0,0,90.28,47.71Z"/><path class="cls-1" d="M95.92,47.74a1.44,1.44,0,1,0-1.44-1.44A1.44,1.44,0,0,0,95.92,47.74Z"/><path class="cls-1" d="M101.56,47.71a1.41,1.41,0,1,0-1.4-1.41A1.41,1.41,0,0,0,101.56,47.71Z"/><circle class="cls-1" cx="107.2" cy="46.3" r="1.35"/><path class="cls-1" d="M112.85,47.53a1.24,1.24,0,1,0-1.24-1.23A1.23,1.23,0,0,0,112.85,47.53Z"/><path class="cls-1" d="M118.49,47.39a1.1,1.1,0,1,0-1.1-1.09A1.09,1.09,0,0,0,118.49,47.39Z"/><path class="cls-1" d="M124.13,47.24a.94.94,0,1,0-.94-.94A.94.94,0,0,0,124.13,47.24Z"/><path class="cls-1" d="M129.77,47.06a.77.77,0,0,0,.77-.76.77.77,0,0,0-1.54,0A.77.77,0,0,0,129.77,47.06Z"/><circle class="cls-1" cx="135.41" cy="46.3" r="0.61"/><path class="cls-1" d="M141.05,46.77a.47.47,0,1,0-.47-.47A.47.47,0,0,0,141.05,46.77Z"/><path class="cls-1" d="M146.7,46.63a.33.33,0,1,0-.33-.33A.32.32,0,0,0,146.7,46.63Z"/><circle class="cls-1" cx="152.34" cy="46.3" r="0.22"/><path class="cls-1" d="M158,46.44a.14.14,0,1,0-.14-.14A.14.14,0,0,0,158,46.44Z"/><path class="cls-1" d="M163.62,46.38a.08.08,0,1,0-.08-.08A.09.09,0,0,0,163.62,46.38Z"/><path class="cls-1" d="M169.26,46.35a.05.05,0,0,0,.05-.05,0,0,0,0,0-.05,0,.05.05,0,0,0,0,0A.06.06,0,0,0,169.26,46.35Z"/><path class="cls-1" d="M174.9,46.31s0,0,0,0l0,0s0,0,0,0S174.89,46.31,174.9,46.31Z"/><path class="cls-1" d="M11.3,52s0,0,0,0,0,0,0,0l0,0A0,0,0,0,0,11.3,52Z"/><path class="cls-1" d="M16.94,52a0,0,0,0,0,0-.06,0,0,0,0,0,0,.06A0,0,0,0,0,16.94,52Z"/><path class="cls-1" d="M22.58,52a.06.06,0,1,0,0-.12.06.06,0,1,0,0,.12Z"/><path class="cls-1" d="M28.22,52.07a.13.13,0,0,0,0-.26.13.13,0,0,0,0,.26Z"/><path class="cls-1" d="M33.86,52.14a.2.2,0,1,0,0-.4.2.2,0,1,0,0,.4Z"/><path class="cls-1" d="M39.51,52.25a.31.31,0,1,0-.32-.31A.31.31,0,0,0,39.51,52.25Z"/><path class="cls-1" d="M45.15,52.39a.45.45,0,1,0,0-.9.45.45,0,1,0,0,.9Z"/><path class="cls-1" d="M50.79,52.55a.61.61,0,1,0-.61-.61A.61.61,0,0,0,50.79,52.55Z"/><path class="cls-1" d="M56.43,52.75a.81.81,0,1,0-.81-.81A.81.81,0,0,0,56.43,52.75Z"/><path class="cls-1" d="M62.07,53a1,1,0,1,0-1-1A1,1,0,0,0,62.07,53Z"/><path class="cls-1" d="M67.71,53.18a1.24,1.24,0,1,0-1.23-1.24A1.24,1.24,0,0,0,67.71,53.18Z"/><path class="cls-1" d="M73.36,53.39a1.45,1.45,0,1,0-1.46-1.45A1.45,1.45,0,0,0,73.36,53.39Z"/><circle class="cls-1" cx="79" cy="51.94" r="1.64"/><path class="cls-1" d="M84.64,53.74a1.8,1.8,0,1,0-1.8-1.8A1.81,1.81,0,0,0,84.64,53.74Z"/><path class="cls-1" d="M90.28,53.85a1.91,1.91,0,1,0-1.91-1.91A1.92,1.92,0,0,0,90.28,53.85Z"/><path class="cls-1" d="M95.92,53.88A1.94,1.94,0,1,0,94,51.94,1.94,1.94,0,0,0,95.92,53.88Z"/><path class="cls-1" d="M101.56,53.85a1.91,1.91,0,1,0-1.91-1.91A1.91,1.91,0,0,0,101.56,53.85Z"/><path class="cls-1" d="M107.2,53.75a1.81,1.81,0,1,0-1.81-1.81A1.81,1.81,0,0,0,107.2,53.75Z"/><path class="cls-1" d="M112.85,53.6a1.66,1.66,0,1,0-1.66-1.66A1.65,1.65,0,0,0,112.85,53.6Z"/><path class="cls-1" d="M118.49,53.41A1.47,1.47,0,1,0,117,51.94,1.47,1.47,0,0,0,118.49,53.41Z"/><path class="cls-1" d="M124.13,53.21a1.27,1.27,0,1,0-1.27-1.27A1.27,1.27,0,0,0,124.13,53.21Z"/><path class="cls-1" d="M129.77,53a1.05,1.05,0,1,0-1.05-1.05A1,1,0,0,0,129.77,53Z"/><circle class="cls-1" cx="135.41" cy="51.94" r="0.83"/><path class="cls-1" d="M141.05,52.57a.63.63,0,1,0-.62-.63A.63.63,0,0,0,141.05,52.57Z"/><path class="cls-1" d="M146.7,52.41a.47.47,0,1,0-.47-.47A.47.47,0,0,0,146.7,52.41Z"/><circle class="cls-1" cx="152.34" cy="51.94" r="0.33"/><path class="cls-1" d="M158,52.14a.2.2,0,0,0,0-.4.2.2,0,1,0,0,.4Z"/><path class="cls-1" d="M163.62,52.07a.13.13,0,0,0,0-.26.13.13,0,0,0,0,.26Z"/><path class="cls-1" d="M169.26,52a.06.06,0,1,0,0-.12.06.06,0,0,0,0,.12Z"/><circle class="cls-1" cx="174.9" cy="51.94" r="0.03"/><path class="cls-1" d="M180.54,52a0,0,0,0,0,0,0,0,0,0,0,0,0,0v0A0,0,0,0,0,180.54,52Z"/><path class="cls-1" d="M11.3,57.6s0,0,0,0h0A0,0,0,0,0,11.3,57.6Z"/><path class="cls-1" d="M16.94,57.63a0,0,0,0,0,0-.05.05.05,0,0,0-.1,0A0,0,0,0,0,16.94,57.63Z"/><path class="cls-1" d="M22.58,57.68a.11.11,0,0,0,.1-.1.1.1,0,0,0-.1-.09.09.09,0,0,0-.09.09A.1.1,0,0,0,22.58,57.68Z"/><path class="cls-1" d="M28.22,57.75a.17.17,0,0,0,.18-.17.18.18,0,0,0-.18-.17.18.18,0,0,0-.17.17A.17.17,0,0,0,28.22,57.75Z"/><path class="cls-1" d="M33.86,57.85a.27.27,0,0,0,.27-.27.27.27,0,0,0-.53,0A.27.27,0,0,0,33.86,57.85Z"/><path class="cls-1" d="M39.51,58a.42.42,0,1,0-.43-.42A.42.42,0,0,0,39.51,58Z"/><path class="cls-1" d="M45.15,58.18a.59.59,0,0,0,.59-.6.58.58,0,0,0-.59-.59.59.59,0,0,0-.6.59A.6.6,0,0,0,45.15,58.18Z"/><path class="cls-1" d="M50.79,58.39a.81.81,0,1,0-.81-.81A.81.81,0,0,0,50.79,58.39Z"/><path class="cls-1" d="M56.43,58.65a1.07,1.07,0,1,0-1.06-1.07A1.06,1.06,0,0,0,56.43,58.65Z"/><path class="cls-1" d="M62.07,58.91a1.33,1.33,0,1,0-1.33-1.33A1.32,1.32,0,0,0,62.07,58.91Z"/><path class="cls-1" d="M67.71,59.19a1.61,1.61,0,1,0-1.61-1.61A1.62,1.62,0,0,0,67.71,59.19Z"/><path class="cls-1" d="M73.36,59.47a1.89,1.89,0,1,0-1.9-1.89A1.89,1.89,0,0,0,73.36,59.47Z"/><path class="cls-1" d="M79,59.74a2.16,2.16,0,1,0-2.16-2.16A2.16,2.16,0,0,0,79,59.74Z"/><path class="cls-1" d="M84.64,59.94a2.36,2.36,0,1,0-2.36-2.36A2.36,2.36,0,0,0,84.64,59.94Z"/><path class="cls-1" d="M90.28,60.07a2.49,2.49,0,1,0-2.49-2.49A2.49,2.49,0,0,0,90.28,60.07Z"/><path class="cls-1" d="M95.92,60.12a2.54,2.54,0,1,0-2.53-2.54A2.54,2.54,0,0,0,95.92,60.12Z"/><path class="cls-1" d="M101.56,60.08a2.5,2.5,0,1,0-2.5-2.5A2.5,2.5,0,0,0,101.56,60.08Z"/><path class="cls-1" d="M107.2,60a2.38,2.38,0,1,0-2.37-2.38A2.38,2.38,0,0,0,107.2,60Z"/><path class="cls-1" d="M112.85,59.76a2.18,2.18,0,1,0-2.18-2.18A2.18,2.18,0,0,0,112.85,59.76Z"/><path class="cls-1" d="M118.49,59.51a1.93,1.93,0,1,0-1.93-1.93A1.93,1.93,0,0,0,118.49,59.51Z"/><path class="cls-1" d="M124.13,59.22a1.64,1.64,0,1,0-1.64-1.64A1.63,1.63,0,0,0,124.13,59.22Z"/><path class="cls-1" d="M129.77,58.94a1.36,1.36,0,1,0-1.36-1.36A1.36,1.36,0,0,0,129.77,58.94Z"/><path class="cls-1" d="M135.41,58.66a1.08,1.08,0,1,0,0-2.16,1.08,1.08,0,1,0,0,2.16Z"/><path class="cls-1" d="M141.05,58.41a.83.83,0,1,0-.83-.83A.83.83,0,0,0,141.05,58.41Z"/><path class="cls-1" d="M146.7,58.19a.61.61,0,0,0,0-1.22.61.61,0,0,0,0,1.22Z"/><path class="cls-1" d="M152.34,58a.44.44,0,1,0-.44-.44A.44.44,0,0,0,152.34,58Z"/><path class="cls-1" d="M158,57.86a.28.28,0,0,0,.28-.28.29.29,0,0,0-.28-.28.28.28,0,0,0-.28.28A.27.27,0,0,0,158,57.86Z"/><path class="cls-1" d="M163.62,57.75a.17.17,0,0,0,.17-.17.18.18,0,0,0-.17-.17.17.17,0,0,0-.17.17A.16.16,0,0,0,163.62,57.75Z"/><path class="cls-1" d="M169.26,57.68a.11.11,0,0,0,.1-.1.1.1,0,0,0-.1-.09.09.09,0,0,0-.09.09A.1.1,0,0,0,169.26,57.68Z"/><path class="cls-1" d="M174.9,57.63a0,0,0,0,0,0-.05.05.05,0,0,0,0,0s0,0,0,0A0,0,0,0,0,174.9,57.63Z"/><path class="cls-1" d="M180.54,57.6a0,0,0,0,0,0,0h0A0,0,0,0,0,180.54,57.6Z"/><path class="cls-1" d="M5.66,63.24s0,0,0,0h0Z"/><circle class="cls-1" cx="11.3" cy="63.22" r="0.03"/><path class="cls-1" d="M16.94,63.29a.07.07,0,0,0,.06-.07.06.06,0,1,0-.12,0A.07.07,0,0,0,16.94,63.29Z"/><path class="cls-1" d="M22.58,63.35a.13.13,0,0,0,.13-.13.12.12,0,0,0-.13-.12.12.12,0,0,0-.12.12A.12.12,0,0,0,22.58,63.35Z"/><path class="cls-1" d="M28.22,63.44a.22.22,0,1,0-.22-.22A.22.22,0,0,0,28.22,63.44Z"/><circle class="cls-1" cx="33.86" cy="63.22" r="0.36"/><circle class="cls-1" cx="39.51" cy="63.22" r="0.53"/><circle class="cls-1" cx="45.15" cy="63.22" r="0.75"/><path class="cls-1" d="M50.79,64.24a1,1,0,1,0-1-1A1,1,0,0,0,50.79,64.24Z"/><circle class="cls-1" cx="56.43" cy="63.22" r="1.33"/><circle class="cls-1" cx="62.07" cy="63.22" r="1.67"/><circle class="cls-1" cx="67.71" cy="63.22" r="2.03"/><path class="cls-1" d="M73.36,65.63A2.41,2.41,0,1,0,71,63.22,2.4,2.4,0,0,0,73.36,65.63Z"/><circle class="cls-1" cx="79" cy="63.22" r="2.64"/><circle class="cls-1" cx="84.64" cy="63.22" r="2.72"/><circle class="cls-1" cx="90.28" cy="63.22" r="2.72"/><path class="cls-1" d="M95.92,66a2.73,2.73,0,1,0-2.72-2.73A2.72,2.72,0,0,0,95.92,66Z"/><circle class="cls-1" cx="101.56" cy="63.22" r="2.72"/><circle class="cls-1" cx="107.2" cy="63.22" r="2.72"/><path class="cls-1" d="M112.85,65.88a2.66,2.66,0,1,0-2.66-2.66A2.67,2.67,0,0,0,112.85,65.88Z"/><path class="cls-1" d="M118.49,65.65a2.43,2.43,0,1,0-2.43-2.43A2.42,2.42,0,0,0,118.49,65.65Z"/><path class="cls-1" d="M124.13,65.29a2.07,2.07,0,1,0-2.07-2.07A2.07,2.07,0,0,0,124.13,65.29Z"/><path class="cls-1" d="M129.77,64.93a1.71,1.71,0,1,0,0-3.41,1.71,1.71,0,0,0,0,3.41Z"/><circle class="cls-1" cx="135.41" cy="63.22" r="1.36"/><path class="cls-1" d="M141.05,64.27a1.05,1.05,0,1,0-1-1A1,1,0,0,0,141.05,64.27Z"/><path class="cls-1" d="M146.7,64a.79.79,0,1,0-.79-.79A.78.78,0,0,0,146.7,64Z"/><path class="cls-1" d="M152.34,63.77a.55.55,0,1,0-.55-.55A.54.54,0,0,0,152.34,63.77Z"/><path class="cls-1" d="M158,63.6a.38.38,0,0,0,0-.75.38.38,0,1,0,0,.75Z"/><path class="cls-1" d="M163.62,63.46a.23.23,0,0,0,.23-.24.23.23,0,0,0-.46,0A.23.23,0,0,0,163.62,63.46Z"/><circle class="cls-1" cx="169.26" cy="63.22" r="0.14"/><path class="cls-1" d="M174.9,63.29a.07.07,0,0,0,.07-.07.07.07,0,0,0-.07-.06.06.06,0,0,0-.06.06A.07.07,0,0,0,174.9,63.29Z"/><circle class="cls-1" cx="180.54" cy="63.22" r="0.03"/><path class="cls-1" d="M186.19,63.24v0h0Z"/><path class="cls-1" d="M5.66,68.88s0,0,0,0a0,0,0,0,0,0,0h0A0,0,0,0,0,5.66,68.88Z"/><circle class="cls-1" cx="11.3" cy="68.86" r="0.03"/><path class="cls-1" d="M16.94,68.94a.08.08,0,0,0,.08-.08.08.08,0,0,0-.16,0A.08.08,0,0,0,16.94,68.94Z"/><circle class="cls-1" cx="22.58" cy="68.86" r="0.17" transform="translate(-0.46 0.15) rotate(-0.38)"/><path class="cls-1" d="M28.22,69.15a.29.29,0,0,0,0-.57.29.29,0,0,0,0,.57Z"/><circle class="cls-1" cx="33.86" cy="68.86" r="0.44"/><circle class="cls-1" cx="39.51" cy="68.86" r="0.66"/><circle class="cls-1" cx="45.15" cy="68.86" r="0.92"/><path class="cls-1" d="M50.79,70.1a1.24,1.24,0,1,0-1.24-1.24A1.24,1.24,0,0,0,50.79,70.1Z"/><circle class="cls-1" cx="56.43" cy="68.86" r="1.61"/><circle class="cls-1" cx="62.07" cy="68.86" r="2.03"/><path class="cls-1" d="M67.71,71.35a2.49,2.49,0,1,0-2.48-2.49A2.48,2.48,0,0,0,67.71,71.35Z"/><path class="cls-1" d="M73.36,71.57a2.71,2.71,0,1,0-2.71-2.71A2.7,2.7,0,0,0,73.36,71.57Z"/><circle class="cls-1" cx="79" cy="68.86" r="2.72"/><circle class="cls-1" cx="84.64" cy="68.86" r="2.72"/><circle class="cls-1" cx="90.28" cy="68.86" r="2.72"/><path class="cls-1" d="M95.92,71.59a2.73,2.73,0,1,0-2.72-2.73A2.72,2.72,0,0,0,95.92,71.59Z"/><circle class="cls-1" cx="101.56" cy="68.86" r="2.72"/><circle class="cls-1" cx="107.2" cy="68.86" r="2.72"/><circle class="cls-1" cx="112.85" cy="68.86" r="2.72"/><path class="cls-1" d="M118.49,71.59a2.73,2.73,0,1,0-2.72-2.73A2.72,2.72,0,0,0,118.49,71.59Z"/><path class="cls-1" d="M124.13,71.38a2.52,2.52,0,1,0-2.52-2.52A2.52,2.52,0,0,0,124.13,71.38Z"/><circle class="cls-1" cx="129.77" cy="68.86" r="2.08"/><circle class="cls-1" cx="135.41" cy="68.86" r="1.64"/><path class="cls-1" d="M141.05,70.13a1.27,1.27,0,1,0,0-2.53,1.27,1.27,0,0,0,0,2.53Z"/><path class="cls-1" d="M146.7,69.8a.94.94,0,1,0-.94-.94A.94.94,0,0,0,146.7,69.8Z"/><circle class="cls-1" cx="152.34" cy="68.86" r="0.67"/><circle class="cls-1" cx="157.98" cy="68.86" r="0.45"/><path class="cls-1" d="M163.62,69.16a.3.3,0,1,0-.3-.3A.3.3,0,0,0,163.62,69.16Z"/><path class="cls-1" d="M169.26,69a.17.17,0,0,0,.17-.18.17.17,0,0,0-.17-.17.18.18,0,0,0-.17.17A.18.18,0,0,0,169.26,69Z"/><path class="cls-1" d="M174.9,69a.1.1,0,0,0,.1-.1.1.1,0,0,0-.1-.09.09.09,0,0,0-.09.09A.09.09,0,0,0,174.9,69Z"/><path class="cls-1" d="M180.54,68.91a0,0,0,0,0,.05,0,0,0,0,0,0-.05,0,0,0,0,0,0,0,0A0,0,0,0,0,180.54,68.91Z"/><path class="cls-1" d="M186.19,68.88a0,0,0,0,0,0,0h0A0,0,0,0,0,186.19,68.88Z"/><path class="cls-1" d="M5.66,74.52h0s0,0,0,0a0,0,0,0,0,0,0Z"/><path class="cls-1" d="M11.3,74.55s0,0,0,0a.05.05,0,0,0,0-.05,0,0,0,0,0-.05.05A0,0,0,0,0,11.3,74.55Z"/><path class="cls-1" d="M16.94,74.62a.11.11,0,1,0-.11-.11A.11.11,0,0,0,16.94,74.62Z"/><path class="cls-1" d="M22.58,74.71a.21.21,0,1,0,0-.41.2.2,0,0,0-.2.21A.2.2,0,0,0,22.58,74.71Z"/><path class="cls-1" d="M28.22,74.85a.35.35,0,0,0,.35-.34.35.35,0,0,0-.35-.35.35.35,0,0,0-.34.35A.34.34,0,0,0,28.22,74.85Z"/><circle class="cls-1" cx="33.86" cy="74.51" r="0.53"/><path class="cls-1" d="M39.51,75.27a.77.77,0,1,0-.77-.76A.76.76,0,0,0,39.51,75.27Z"/><circle class="cls-1" cx="45.15" cy="74.51" r="1.08"/><path class="cls-1" d="M50.79,76a1.46,1.46,0,1,0-1.46-1.45A1.45,1.45,0,0,0,50.79,76Z"/><circle class="cls-1" cx="56.43" cy="74.51" r="1.89"/><path class="cls-1" d="M62.07,76.92a2.41,2.41,0,1,0-2.41-2.41A2.41,2.41,0,0,0,62.07,76.92Z"/><path class="cls-1" d="M67.71,77.21a2.71,2.71,0,1,0-2.7-2.7A2.7,2.7,0,0,0,67.71,77.21Z"/><path class="cls-1" d="M73.36,77.23a2.73,2.73,0,1,0-2.73-2.72A2.72,2.72,0,0,0,73.36,77.23Z"/><circle class="cls-1" cx="79" cy="74.51" r="2.72"/><circle class="cls-1" cx="84.64" cy="74.51" r="2.72"/><circle class="cls-1" cx="90.28" cy="74.51" r="2.72"/><path class="cls-1" d="M95.92,77.23a2.73,2.73,0,1,0-2.72-2.72A2.72,2.72,0,0,0,95.92,77.23Z"/><circle class="cls-1" cx="101.56" cy="74.51" r="2.72"/><circle class="cls-1" cx="107.2" cy="74.51" r="2.72"/><circle class="cls-1" cx="112.85" cy="74.51" r="2.72"/><path class="cls-1" d="M118.49,77.23a2.73,2.73,0,1,0-2.72-2.72A2.72,2.72,0,0,0,118.49,77.23Z"/><path class="cls-1" d="M124.13,77.23a2.73,2.73,0,1,0-2.72-2.72A2.72,2.72,0,0,0,124.13,77.23Z"/><path class="cls-1" d="M129.77,77a2.44,2.44,0,1,0-2.44-2.44A2.44,2.44,0,0,0,129.77,77Z"/><path class="cls-1" d="M135.41,76.45a1.94,1.94,0,1,0-1.94-1.94A1.94,1.94,0,0,0,135.41,76.45Z"/><path class="cls-1" d="M141.05,76a1.49,1.49,0,1,0-1.48-1.48A1.49,1.49,0,0,0,141.05,76Z"/><circle class="cls-1" cx="146.7" cy="74.51" r="1.11"/><path class="cls-1" d="M152.34,75.3a.79.79,0,0,0,.79-.79.79.79,0,0,0-.79-.8.8.8,0,0,0-.8.8A.79.79,0,0,0,152.34,75.3Z"/><path class="cls-1" d="M158,75.05a.55.55,0,1,0-.55-.54A.55.55,0,0,0,158,75.05Z"/><path class="cls-1" d="M163.62,74.85a.34.34,0,0,0,.34-.34.34.34,0,1,0-.68,0A.34.34,0,0,0,163.62,74.85Z"/><path class="cls-1" d="M169.26,74.71a.2.2,0,0,0,.2-.2.2.2,0,1,0-.4,0A.2.2,0,0,0,169.26,74.71Z"/><circle class="cls-1" cx="174.9" cy="74.51" r="0.11"/><path class="cls-1" d="M180.54,74.55a0,0,0,0,0,.05,0,0,0,0,0,0-.05-.05,0,0,0,0,0,0,.05A0,0,0,0,0,180.54,74.55Z"/><path class="cls-1" d="M186.19,74.52h0a0,0,0,0,0,0,0,0,0,0,0,0,0,0Z"/><path class="cls-1" d="M5.66,80.16h0s0,0,0,0a0,0,0,0,0,0,0Z"/><path class="cls-1" d="M11.3,80.21a.06.06,0,0,0,.06-.06.06.06,0,0,0-.06-.06.05.05,0,0,0-.06.06A.06.06,0,0,0,11.3,80.21Z"/><path class="cls-1" d="M16.94,80.27a.12.12,0,0,0,.13-.12.13.13,0,0,0-.13-.13.12.12,0,0,0-.12.13A.12.12,0,0,0,16.94,80.27Z"/><path class="cls-1" d="M22.58,80.38a.23.23,0,0,0,.24-.23.24.24,0,0,0-.24-.24.23.23,0,0,0-.23.24A.23.23,0,0,0,22.58,80.38Z"/><path class="cls-1" d="M28.22,80.54a.39.39,0,0,0,.39-.39.38.38,0,0,0-.39-.39.39.39,0,0,0-.39.39A.4.4,0,0,0,28.22,80.54Z"/><path class="cls-1" d="M33.86,80.74a.59.59,0,0,0,.6-.59.6.6,0,1,0-1.19,0A.59.59,0,0,0,33.86,80.74Z"/><path class="cls-1" d="M39.51,81a.88.88,0,1,0-.88-.87A.87.87,0,0,0,39.51,81Z"/><path class="cls-1" d="M45.15,81.37a1.22,1.22,0,1,0,0-2.44,1.22,1.22,0,0,0,0,2.44Z"/><path class="cls-1" d="M50.79,81.79a1.64,1.64,0,1,0-1.64-1.64A1.64,1.64,0,0,0,50.79,81.79Z"/><path class="cls-1" d="M56.43,82.31a2.16,2.16,0,1,0-2.16-2.16A2.16,2.16,0,0,0,56.43,82.31Z"/><path class="cls-1" d="M62.07,82.79a2.65,2.65,0,1,0-2.64-2.64A2.65,2.65,0,0,0,62.07,82.79Z"/><path class="cls-1" d="M67.71,82.87A2.72,2.72,0,1,0,65,80.15,2.72,2.72,0,0,0,67.71,82.87Z"/><path class="cls-1" d="M73.36,82.87a2.72,2.72,0,1,0-2.73-2.72A2.72,2.72,0,0,0,73.36,82.87Z"/><path class="cls-1" d="M79,82.87a2.72,2.72,0,1,0-2.72-2.72A2.72,2.72,0,0,0,79,82.87Z"/><path class="cls-1" d="M84.64,82.87a2.72,2.72,0,1,0-2.72-2.72A2.72,2.72,0,0,0,84.64,82.87Z"/><path class="cls-1" d="M90.28,82.87a2.72,2.72,0,1,0-2.72-2.72A2.72,2.72,0,0,0,90.28,82.87Z"/><path class="cls-1" d="M95.92,82.87a2.72,2.72,0,1,0-2.72-2.72A2.72,2.72,0,0,0,95.92,82.87Z"/><path class="cls-1" d="M101.56,82.87a2.72,2.72,0,1,0-2.72-2.72A2.72,2.72,0,0,0,101.56,82.87Z"/><path class="cls-1" d="M107.2,82.87a2.72,2.72,0,1,0-2.72-2.72A2.72,2.72,0,0,0,107.2,82.87Z"/><path class="cls-1" d="M112.85,82.87a2.72,2.72,0,1,0-2.73-2.72A2.72,2.72,0,0,0,112.85,82.87Z"/><path class="cls-1" d="M118.49,82.87a2.72,2.72,0,1,0-2.72-2.72A2.72,2.72,0,0,0,118.49,82.87Z"/><path class="cls-1" d="M124.13,82.87a2.72,2.72,0,1,0-2.72-2.72A2.72,2.72,0,0,0,124.13,82.87Z"/><path class="cls-1" d="M129.77,82.82a2.68,2.68,0,1,0-2.67-2.67A2.67,2.67,0,0,0,129.77,82.82Z"/><path class="cls-1" d="M135.41,82.35a2.21,2.21,0,1,0-2.2-2.2A2.2,2.2,0,0,0,135.41,82.35Z"/><path class="cls-1" d="M141.05,81.84a1.69,1.69,0,1,0-1.69-1.69A1.69,1.69,0,0,0,141.05,81.84Z"/><circle class="cls-1" cx="146.7" cy="80.15" r="1.25"/><path class="cls-1" d="M152.34,81.05a.91.91,0,0,0,0-1.81.91.91,0,1,0,0,1.81Z"/><path class="cls-1" d="M158,80.77a.63.63,0,1,0-.63-.62A.62.62,0,0,0,158,80.77Z"/><path class="cls-1" d="M163.62,80.55a.41.41,0,1,0-.41-.4A.41.41,0,0,0,163.62,80.55Z"/><circle class="cls-1" cx="169.26" cy="80.15" r="0.25"/><path class="cls-1" d="M174.9,80.29a.14.14,0,1,0,0-.28.14.14,0,1,0,0,.28Z"/><path class="cls-1" d="M180.54,80.21a.07.07,0,0,0,.07-.06s0-.06-.07-.06a.06.06,0,0,0-.06.06A.06.06,0,0,0,180.54,80.21Z"/><path class="cls-1" d="M186.19,80.18l0,0a0,0,0,0,0,0,0s0,0,0,0A0,0,0,0,0,186.19,80.18Z"/><path class="cls-1" d="M191.83,80.16h0s0,0,0,0a0,0,0,0,0,0,0Z"/><path class="cls-1" d="M0,85.8H0a0,0,0,0,0,0,0,0,0,0,0,0,0,0Z"/><path class="cls-1" d="M5.66,85.82a0,0,0,1,0,0-.06,0,0,0,0,0,0,.06Z"/><circle class="cls-1" cx="11.3" cy="85.79" r="0.08"/><path class="cls-1" d="M16.94,85.93a.14.14,0,1,0-.14-.14A.14.14,0,0,0,16.94,85.93Z"/><path class="cls-1" d="M22.58,86.06a.27.27,0,0,0,0-.54.27.27,0,0,0,0,.54Z"/><path class="cls-1" d="M28.22,86.21a.42.42,0,1,0-.42-.42A.42.42,0,0,0,28.22,86.21Z"/><path class="cls-1" d="M33.86,86.45a.66.66,0,1,0-.65-.66A.66.66,0,0,0,33.86,86.45Z"/><path class="cls-1" d="M39.51,86.74a1,1,0,0,0,0-1.91,1,1,0,1,0,0,1.91Z"/><circle class="cls-1" cx="45.15" cy="85.79" r="1.33"/><path class="cls-1" d="M50.79,87.59a1.8,1.8,0,1,0-1.8-1.8A1.81,1.81,0,0,0,50.79,87.59Z"/><circle class="cls-1" cx="56.43" cy="85.79" r="2.36"/><circle class="cls-1" cx="62.07" cy="85.79" r="2.72"/><circle class="cls-1" cx="67.71" cy="85.79" r="2.72"/><path class="cls-1" d="M73.36,88.51a2.72,2.72,0,1,0-2.73-2.72A2.72,2.72,0,0,0,73.36,88.51Z"/><circle class="cls-1" cx="79" cy="85.79" r="2.72"/><circle class="cls-1" cx="84.64" cy="85.79" r="2.72"/><circle class="cls-1" cx="90.28" cy="85.79" r="2.72"/><path class="cls-1" d="M95.92,88.51a2.72,2.72,0,1,0-2.72-2.72A2.72,2.72,0,0,0,95.92,88.51Z"/><circle class="cls-1" cx="101.56" cy="85.79" r="2.72"/><circle class="cls-1" cx="107.2" cy="85.79" r="2.72"/><circle class="cls-1" cx="112.85" cy="85.79" r="2.72"/><path class="cls-1" d="M118.49,88.51a2.72,2.72,0,1,0-2.72-2.72A2.72,2.72,0,0,0,118.49,88.51Z"/><path class="cls-1" d="M124.13,88.51a2.72,2.72,0,1,0-2.72-2.72A2.72,2.72,0,0,0,124.13,88.51Z"/><circle class="cls-1" cx="129.77" cy="85.79" r="2.72"/><path class="cls-1" d="M135.41,88.2A2.41,2.41,0,1,0,133,85.79,2.41,2.41,0,0,0,135.41,88.2Z"/><path class="cls-1" d="M141.05,87.64a1.85,1.85,0,1,0-1.84-1.85A1.85,1.85,0,0,0,141.05,87.64Z"/><circle class="cls-1" cx="146.7" cy="85.79" r="1.36"/><path class="cls-1" d="M152.34,86.77a1,1,0,1,0-1-1A1,1,0,0,0,152.34,86.77Z"/><circle class="cls-1" cx="157.98" cy="85.79" r="0.67"/><path class="cls-1" d="M163.62,86.23a.44.44,0,1,0-.44-.44A.44.44,0,0,0,163.62,86.23Z"/><path class="cls-1" d="M169.26,86.06a.27.27,0,0,0,0-.54.27.27,0,0,0,0,.54Z"/><path class="cls-1" d="M174.9,86a.16.16,0,1,0,0-.32.16.16,0,0,0,0,.32Z"/><circle class="cls-1" cx="180.54" cy="85.79" r="0.08"/><circle class="cls-1" cx="186.19" cy="85.79" r="0.03"/><path class="cls-1" d="M191.83,85.8h0s0,0,0,0a0,0,0,0,0,0,0Z"/><path class="cls-1" d="M0,91.45v0a0,0,0,0,0,0,0s0,0,0,0A0,0,0,0,0,0,91.45Z"/><path class="cls-1" d="M5.66,91.46a0,0,0,1,0,0-.06,0,0,0,1,0,0,.06Z"/><circle class="cls-1" cx="11.3" cy="91.43" r="0.08"/><path class="cls-1" d="M16.94,91.59a.16.16,0,1,0-.16-.16A.16.16,0,0,0,16.94,91.59Z"/><circle class="cls-1" cx="22.58" cy="91.43" r="0.28"/><circle class="cls-1" cx="28.22" cy="91.43" r="0.45"/><circle class="cls-1" cx="33.86" cy="91.43" r="0.69"/><circle class="cls-1" cx="39.51" cy="91.43" r="1.02"/><path class="cls-1" d="M45.15,92.84a1.41,1.41,0,1,0-1.41-1.41A1.41,1.41,0,0,0,45.15,92.84Z"/><path class="cls-1" d="M50.79,93.34a1.91,1.91,0,1,0-1.91-1.91A1.92,1.92,0,0,0,50.79,93.34Z"/><path class="cls-1" d="M56.43,93.92a2.49,2.49,0,1,0-2.49-2.49A2.5,2.5,0,0,0,56.43,93.92Z"/><circle class="cls-1" cx="62.07" cy="91.43" r="2.72"/><circle class="cls-1" cx="67.71" cy="91.43" r="2.72"/><path class="cls-1" d="M73.36,94.15a2.72,2.72,0,1,0-2.73-2.72A2.72,2.72,0,0,0,73.36,94.15Z"/><circle class="cls-1" cx="79" cy="91.43" r="2.72"/><circle class="cls-1" cx="84.64" cy="91.43" r="2.72"/><circle class="cls-1" cx="90.28" cy="91.43" r="2.72"/><path class="cls-1" d="M95.92,94.15a2.72,2.72,0,1,0-2.72-2.72A2.72,2.72,0,0,0,95.92,94.15Z"/><circle class="cls-1" cx="101.56" cy="91.43" r="2.72"/><circle class="cls-1" cx="107.2" cy="91.43" r="2.72"/><circle class="cls-1" cx="112.85" cy="91.43" r="2.72"/><path class="cls-1" d="M118.49,94.15a2.72,2.72,0,1,0-2.72-2.72A2.72,2.72,0,0,0,118.49,94.15Z"/><path class="cls-1" d="M124.13,94.15a2.72,2.72,0,1,0-2.72-2.72A2.72,2.72,0,0,0,124.13,94.15Z"/><circle class="cls-1" cx="129.77" cy="91.43" r="2.72"/><circle class="cls-1" cx="135.41" cy="91.43" r="2.53"/><path class="cls-1" d="M141.05,93.39a2,2,0,1,0-2-2A2,2,0,0,0,141.05,93.39Z"/><path class="cls-1" d="M146.7,92.87a1.44,1.44,0,1,0-1.44-1.44A1.43,1.43,0,0,0,146.7,92.87Z"/><circle class="cls-1" cx="152.34" cy="91.43" r="1.03"/><circle class="cls-1" cx="157.98" cy="91.43" r="0.72"/><circle class="cls-1" cx="163.62" cy="91.43" r="0.47"/><path class="cls-1" d="M169.26,91.71a.27.27,0,0,0,.28-.28.28.28,0,0,0-.28-.28.29.29,0,0,0-.28.28A.28.28,0,0,0,169.26,91.71Z"/><circle class="cls-1" cx="174.9" cy="91.43" r="0.17"/><circle class="cls-1" cx="180.54" cy="91.43" r="0.08"/><circle class="cls-1" cx="186.19" cy="91.43" r="0.03"/><path class="cls-1" d="M191.83,91.45s0,0,0,0,0,0,0,0,0,0,0,0A0,0,0,0,0,191.83,91.45Z"/><path class="cls-1" d="M0,97.09a0,0,0,0,0,0,0H0A0,0,0,0,0,0,97.09Z"/><path class="cls-1" d="M5.66,97.1a0,0,0,1,0,0-.06,0,0,0,1,0,0,.06Z"/><circle class="cls-1" cx="11.3" cy="97.07" r="0.08"/><path class="cls-1" d="M16.94,97.23a.16.16,0,0,0,.16-.16.16.16,0,0,0-.32,0A.16.16,0,0,0,16.94,97.23Z"/><circle class="cls-1" cx="22.58" cy="97.07" r="0.28"/><path class="cls-1" d="M28.22,97.54a.47.47,0,1,0-.47-.47A.47.47,0,0,0,28.22,97.54Z"/><path class="cls-1" d="M33.86,97.78a.71.71,0,0,0,.71-.71.71.71,0,1,0-.71.71Z"/><circle class="cls-1" cx="39.51" cy="97.07" r="1.03"/><path class="cls-1" d="M45.15,98.51a1.44,1.44,0,1,0-1.44-1.44A1.44,1.44,0,0,0,45.15,98.51Z"/><path class="cls-1" d="M50.79,99a1.94,1.94,0,1,0-1.94-1.94A1.94,1.94,0,0,0,50.79,99Z"/><circle class="cls-1" cx="56.43" cy="97.07" r="2.53"/><circle class="cls-1" cx="62.07" cy="97.07" r="2.72"/><circle class="cls-1" cx="67.71" cy="97.07" r="2.72"/><path class="cls-1" d="M73.36,99.79a2.72,2.72,0,1,0-2.73-2.72A2.72,2.72,0,0,0,73.36,99.79Z"/><circle class="cls-1" cx="79" cy="97.07" r="2.72"/><circle class="cls-1" cx="84.64" cy="97.07" r="2.72"/><circle class="cls-1" cx="90.28" cy="97.07" r="2.72"/><path class="cls-1" d="M95.92,99.79a2.72,2.72,0,1,0-2.72-2.72A2.72,2.72,0,0,0,95.92,99.79Z"/><circle class="cls-1" cx="101.56" cy="97.07" r="2.72"/><circle class="cls-1" cx="107.2" cy="97.07" r="2.72"/><circle class="cls-1" cx="112.85" cy="97.07" r="2.72"/><path class="cls-1" d="M118.49,99.79a2.72,2.72,0,1,0-2.72-2.72A2.72,2.72,0,0,0,118.49,99.79Z"/><path class="cls-1" d="M124.13,99.79a2.72,2.72,0,1,0-2.72-2.72A2.72,2.72,0,0,0,124.13,99.79Z"/><circle class="cls-1" cx="129.77" cy="97.07" r="2.72"/><circle class="cls-1" cx="135.41" cy="97.07" r="2.57"/><path class="cls-1" d="M141.05,99.06a2,2,0,1,0-2-2A2,2,0,0,0,141.05,99.06Z"/><path class="cls-1" d="M146.7,98.54a1.47,1.47,0,1,0-1.48-1.47A1.47,1.47,0,0,0,146.7,98.54Z"/><circle class="cls-1" cx="152.34" cy="97.07" r="1.06"/><path class="cls-1" d="M158,97.81a.74.74,0,1,0-.74-.74A.74.74,0,0,0,158,97.81Z"/><path class="cls-1" d="M163.62,97.56a.48.48,0,0,0,.48-.49.47.47,0,0,0-.48-.48.48.48,0,0,0-.49.48A.49.49,0,0,0,163.62,97.56Z"/><path class="cls-1" d="M169.26,97.37a.29.29,0,0,0,.3-.3.3.3,0,0,0-.3-.3.31.31,0,0,0-.3.3A.3.3,0,0,0,169.26,97.37Z"/><circle class="cls-1" cx="174.9" cy="97.07" r="0.17"/><path class="cls-1" d="M180.54,97.17a.1.1,0,0,0,.1-.1.09.09,0,0,0-.1-.09.09.09,0,0,0-.09.09A.1.1,0,0,0,180.54,97.17Z"/><circle class="cls-1" cx="186.19" cy="97.07" r="0.03"/><path class="cls-1" d="M191.83,97.09s0,0,0,0h0A0,0,0,0,0,191.83,97.09Z"/><path class="cls-1" d="M0,102.73a0,0,0,0,0,0,0H0A0,0,0,0,0,0,102.73Z"/><path class="cls-1" d="M5.66,102.74a0,0,0,0,0,0,0l0,0a0,0,0,0,0,0,0A0,0,0,0,0,5.66,102.74Z"/><path class="cls-1" d="M11.3,102.79a.08.08,0,0,0,.08-.08.08.08,0,0,0-.16,0A.08.08,0,0,0,11.3,102.79Z"/><path class="cls-1" d="M16.94,102.87a.16.16,0,0,0,.16-.16.16.16,0,0,0-.32,0A.16.16,0,0,0,16.94,102.87Z"/><path class="cls-1" d="M22.58,103a.29.29,0,0,0,0-.57.29.29,0,0,0,0,.57Z"/><path class="cls-1" d="M28.22,103.17a.47.47,0,0,0,.46-.46.46.46,0,0,0-.46-.45.45.45,0,0,0-.45.45A.46.46,0,0,0,28.22,103.17Z"/><path class="cls-1" d="M33.86,103.4a.69.69,0,0,0,.69-.69.68.68,0,0,0-.69-.68.67.67,0,0,0-.68.68A.68.68,0,0,0,33.86,103.4Z"/><path class="cls-1" d="M39.51,103.73a1,1,0,1,0-1-1A1,1,0,0,0,39.51,103.73Z"/><path class="cls-1" d="M45.15,104.12a1.41,1.41,0,1,0-1.41-1.41A1.41,1.41,0,0,0,45.15,104.12Z"/><path class="cls-1" d="M50.79,104.62a1.91,1.91,0,1,0-1.91-1.91A1.91,1.91,0,0,0,50.79,104.62Z"/><circle class="cls-1" cx="56.43" cy="102.71" r="2.5"/><path class="cls-1" d="M62.07,105.44a2.73,2.73,0,1,0-2.72-2.73A2.72,2.72,0,0,0,62.07,105.44Z"/><path class="cls-1" d="M67.71,105.44A2.73,2.73,0,1,0,65,102.71,2.73,2.73,0,0,0,67.71,105.44Z"/><path class="cls-1" d="M73.36,105.44a2.73,2.73,0,1,0-2.73-2.73A2.72,2.72,0,0,0,73.36,105.44Z"/><path class="cls-1" d="M79,105.44a2.73,2.73,0,1,0-2.72-2.73A2.72,2.72,0,0,0,79,105.44Z"/><path class="cls-1" d="M84.64,105.44a2.73,2.73,0,1,0-2.72-2.73A2.72,2.72,0,0,0,84.64,105.44Z"/><path class="cls-1" d="M90.28,105.44a2.73,2.73,0,1,0-2.72-2.73A2.72,2.72,0,0,0,90.28,105.44Z"/><path class="cls-1" d="M95.92,105.44a2.73,2.73,0,1,0-2.72-2.73A2.72,2.72,0,0,0,95.92,105.44Z"/><path class="cls-1" d="M101.56,105.44a2.73,2.73,0,1,0-2.72-2.73A2.73,2.73,0,0,0,101.56,105.44Z"/><path class="cls-1" d="M107.2,105.44a2.73,2.73,0,1,0-2.72-2.73A2.73,2.73,0,0,0,107.2,105.44Z"/><path class="cls-1" d="M112.85,105.44a2.73,2.73,0,1,0-2.73-2.73A2.72,2.72,0,0,0,112.85,105.44Z"/><path class="cls-1" d="M118.49,105.44a2.73,2.73,0,1,0-2.72-2.73A2.72,2.72,0,0,0,118.49,105.44Z"/><path class="cls-1" d="M124.13,105.44a2.73,2.73,0,1,0-2.72-2.73A2.72,2.72,0,0,0,124.13,105.44Z"/><path class="cls-1" d="M129.77,105.44a2.73,2.73,0,1,0-2.72-2.73A2.72,2.72,0,0,0,129.77,105.44Z"/><path class="cls-1" d="M135.41,105.25a2.54,2.54,0,1,0-2.53-2.54A2.54,2.54,0,0,0,135.41,105.25Z"/><path class="cls-1" d="M141.05,104.67a2,2,0,1,0-2-2A2,2,0,0,0,141.05,104.67Z"/><path class="cls-1" d="M146.7,104.17a1.46,1.46,0,1,0-1.46-1.46A1.45,1.45,0,0,0,146.7,104.17Z"/><path class="cls-1" d="M152.34,103.76a1,1,0,1,0-1.05-1.05A1,1,0,0,0,152.34,103.76Z"/><path class="cls-1" d="M158,103.43a.72.72,0,1,0-.72-.72A.72.72,0,0,0,158,103.43Z"/><path class="cls-1" d="M163.62,103.18a.47.47,0,1,0-.47-.47A.47.47,0,0,0,163.62,103.18Z"/><path class="cls-1" d="M169.26,103a.29.29,0,0,0,0-.57.29.29,0,0,0,0,.57Z"/><path class="cls-1" d="M174.9,102.89a.17.17,0,0,0,.17-.18.17.17,0,0,0-.17-.17.18.18,0,0,0-.17.17A.18.18,0,0,0,174.9,102.89Z"/><path class="cls-1" d="M180.54,102.79a.07.07,0,0,0,.08-.08.07.07,0,0,0-.08-.07.07.07,0,0,0-.07.07A.07.07,0,0,0,180.54,102.79Z"/><path class="cls-1" d="M186.19,102.74a0,0,0,0,0,0,0l0,0a0,0,0,0,0,0,0S186.17,102.74,186.19,102.74Z"/><path class="cls-1" d="M191.83,102.73s0,0,0,0h0A0,0,0,0,0,191.83,102.73Z"/><path class="cls-1" d="M0,108.37H0a0,0,0,0,0,0,0,0,0,0,0,0,0,0Z"/><path class="cls-1" d="M5.66,108.39a0,0,0,0,0,0-.07s0,0,0,0A0,0,0,0,0,5.66,108.39Z"/><path class="cls-1" d="M11.3,108.43a.08.08,0,0,0,.08-.07.08.08,0,0,0-.16,0A.08.08,0,0,0,11.3,108.43Z"/><path class="cls-1" d="M16.94,108.5a.14.14,0,0,0,.14-.14.14.14,0,1,0-.28,0A.14.14,0,0,0,16.94,108.5Z"/><path class="cls-1" d="M22.58,108.62a.27.27,0,1,0,0-.53.27.27,0,0,0,0,.53Z"/><path class="cls-1" d="M28.22,108.79a.44.44,0,1,0-.43-.43A.43.43,0,0,0,28.22,108.79Z"/><path class="cls-1" d="M33.86,109a.66.66,0,1,0-.65-.65A.65.65,0,0,0,33.86,109Z"/><path class="cls-1" d="M39.51,109.31a1,1,0,1,0-1-1A1,1,0,0,0,39.51,109.31Z"/><path class="cls-1" d="M45.15,109.7a1.35,1.35,0,1,0-1.35-1.34A1.34,1.34,0,0,0,45.15,109.7Z"/><path class="cls-1" d="M50.79,110.17A1.82,1.82,0,1,0,49,108.36,1.81,1.81,0,0,0,50.79,110.17Z"/><path class="cls-1" d="M56.43,110.73a2.38,2.38,0,1,0-2.38-2.37A2.38,2.38,0,0,0,56.43,110.73Z"/><circle class="cls-1" cx="62.07" cy="108.36" r="2.72"/><circle class="cls-1" cx="67.71" cy="108.36" r="2.72"/><path class="cls-1" d="M73.36,111.08a2.73,2.73,0,1,0-2.73-2.72A2.72,2.72,0,0,0,73.36,111.08Z"/><circle class="cls-1" cx="79" cy="108.36" r="2.72"/><circle class="cls-1" cx="84.64" cy="108.36" r="2.72"/><circle class="cls-1" cx="90.28" cy="108.36" r="2.72"/><path class="cls-1" d="M95.92,111.08a2.73,2.73,0,1,0-2.72-2.72A2.72,2.72,0,0,0,95.92,111.08Z"/><circle class="cls-1" cx="101.56" cy="108.36" r="2.72"/><circle class="cls-1" cx="107.2" cy="108.36" r="2.72"/><circle class="cls-1" cx="112.85" cy="108.36" r="2.72"/><path class="cls-1" d="M118.49,111.08a2.73,2.73,0,1,0-2.72-2.72A2.72,2.72,0,0,0,118.49,111.08Z"/><path class="cls-1" d="M124.13,111.08a2.73,2.73,0,1,0-2.72-2.72A2.72,2.72,0,0,0,124.13,111.08Z"/><circle class="cls-1" cx="129.77" cy="108.36" r="2.72"/><circle class="cls-1" cx="135.41" cy="108.36" r="2.42"/><circle class="cls-1" cx="141.05" cy="108.36" r="1.86"/><path class="cls-1" d="M146.7,109.73a1.38,1.38,0,1,0-1.38-1.37A1.37,1.37,0,0,0,146.7,109.73Z"/><path class="cls-1" d="M152.34,109.34a1,1,0,1,0-1-1A1,1,0,0,0,152.34,109.34Z"/><path class="cls-1" d="M158,109a.68.68,0,0,0,.69-.68.69.69,0,1,0-1.38,0A.68.68,0,0,0,158,109Z"/><path class="cls-1" d="M163.62,108.79a.44.44,0,1,0-.44-.43A.44.44,0,0,0,163.62,108.79Z"/><path class="cls-1" d="M169.26,108.62a.27.27,0,1,0,0-.53.27.27,0,0,0,0,.53Z"/><path class="cls-1" d="M174.9,108.51a.16.16,0,0,0,.16-.15.16.16,0,0,0-.16-.16.16.16,0,0,0-.15.16A.15.15,0,0,0,174.9,108.51Z"/><path class="cls-1" d="M180.54,108.43a.07.07,0,0,0,.08-.07.07.07,0,0,0-.08-.08.07.07,0,0,0-.07.08A.07.07,0,0,0,180.54,108.43Z"/><circle class="cls-1" cx="186.19" cy="108.36" r="0.03"/><path class="cls-1" d="M191.83,108.37a0,0,0,0,0,0,0s0,0,0,0a0,0,0,0,0,0,0Z"/><path class="cls-1" d="M0,114a0,0,0,0,0,0,0,0,0,0,0,0,0,0,0,0,0,0,0,0,0S0,114,0,114Z"/><path class="cls-1" d="M5.66,114a0,0,0,0,0,0,0,0,0,0,0,0,0,0,0,0,0,0,0,0,0A0,0,0,0,0,5.66,114Z"/><circle class="cls-1" cx="11.3" cy="114" r="0.06"/><path class="cls-1" d="M16.94,114.12a.12.12,0,0,0,.13-.12.13.13,0,0,0-.13-.13.12.12,0,0,0-.12.13A.12.12,0,0,0,16.94,114.12Z"/><path class="cls-1" d="M22.58,114.23a.23.23,0,0,0,.24-.23.24.24,0,0,0-.24-.24.23.23,0,0,0-.23.24A.23.23,0,0,0,22.58,114.23Z"/><path class="cls-1" d="M28.22,114.39a.39.39,0,0,0,.39-.39.38.38,0,0,0-.39-.39.39.39,0,0,0-.39.39A.4.4,0,0,0,28.22,114.39Z"/><circle class="cls-1" cx="33.86" cy="114" r="0.61"/><path class="cls-1" d="M39.51,114.87a.88.88,0,1,0-.88-.87A.87.87,0,0,0,39.51,114.87Z"/><path class="cls-1" d="M45.15,115.23A1.24,1.24,0,1,0,43.91,114,1.23,1.23,0,0,0,45.15,115.23Z"/><path class="cls-1" d="M50.79,115.65A1.66,1.66,0,1,0,49.13,114,1.65,1.65,0,0,0,50.79,115.65Z"/><circle class="cls-1" cx="56.43" cy="114" r="2.17"/><circle class="cls-1" cx="62.07" cy="114" r="2.66"/><circle class="cls-1" cx="67.71" cy="114" r="2.72"/><path class="cls-1" d="M73.36,116.72A2.73,2.73,0,1,0,70.63,114,2.72,2.72,0,0,0,73.36,116.72Z"/><circle class="cls-1" cx="79" cy="114" r="2.72"/><circle class="cls-1" cx="84.64" cy="114" r="2.72"/><circle class="cls-1" cx="90.28" cy="114" r="2.72"/><path class="cls-1" d="M95.92,116.72A2.73,2.73,0,1,0,93.2,114,2.72,2.72,0,0,0,95.92,116.72Z"/><circle class="cls-1" cx="101.56" cy="114" r="2.72"/><circle class="cls-1" cx="107.2" cy="114" r="2.72"/><circle class="cls-1" cx="112.85" cy="114" r="2.72"/><path class="cls-1" d="M118.49,116.72a2.73,2.73,0,1,0-2.72-2.72A2.72,2.72,0,0,0,118.49,116.72Z"/><path class="cls-1" d="M124.13,116.72a2.73,2.73,0,1,0-2.72-2.72A2.72,2.72,0,0,0,124.13,116.72Z"/><circle class="cls-1" cx="129.77" cy="114" r="2.68"/><circle class="cls-1" cx="135.41" cy="114" r="2.22"/><path class="cls-1" d="M141.05,115.7a1.71,1.71,0,1,0-1.7-1.7A1.7,1.7,0,0,0,141.05,115.7Z"/><path class="cls-1" d="M146.7,115.26a1.27,1.27,0,0,0,0-2.53,1.27,1.27,0,1,0,0,2.53Z"/><path class="cls-1" d="M152.34,114.9a.91.91,0,0,0,0-1.81.91.91,0,1,0,0,1.81Z"/><path class="cls-1" d="M158,114.62a.63.63,0,1,0-.63-.62A.62.62,0,0,0,158,114.62Z"/><path class="cls-1" d="M163.62,114.4a.41.41,0,1,0-.41-.4A.41.41,0,0,0,163.62,114.4Z"/><circle class="cls-1" cx="169.26" cy="114" r="0.25"/><circle class="cls-1" cx="174.9" cy="114" r="0.14"/><circle class="cls-1" cx="180.54" cy="114" r="0.06"/><circle class="cls-1" cx="186.19" cy="114" r="0.03"/><path class="cls-1" d="M191.83,114s0,0,0,0,0,0,0,0a0,0,0,0,0,0,0S191.82,114,191.83,114Z"/><path class="cls-1" d="M5.66,119.65s0,0,0,0,0,0,0,0a0,0,0,0,0,0,0S5.65,119.65,5.66,119.65Z"/><circle class="cls-1" cx="11.3" cy="119.64" r="0.05"/><path class="cls-1" d="M16.94,119.75a.11.11,0,1,0-.11-.11A.11.11,0,0,0,16.94,119.75Z"/><circle class="cls-1" cx="22.58" cy="119.64" r="0.2"/><path class="cls-1" d="M28.22,120a.35.35,0,0,0,.35-.34.35.35,0,0,0-.35-.35.35.35,0,0,0-.34.35A.34.34,0,0,0,28.22,120Z"/><circle class="cls-1" cx="33.86" cy="119.64" r="0.53"/><circle class="cls-1" cx="39.51" cy="119.64" r="0.78"/><path class="cls-1" d="M45.15,120.73a1.1,1.1,0,1,0-1.1-1.09A1.09,1.09,0,0,0,45.15,120.73Z"/><path class="cls-1" d="M50.79,121.11a1.47,1.47,0,1,0-1.47-1.47A1.47,1.47,0,0,0,50.79,121.11Z"/><circle class="cls-1" cx="56.43" cy="119.64" r="1.92"/><circle class="cls-1" cx="62.07" cy="119.64" r="2.42"/><circle class="cls-1" cx="67.71" cy="119.64" r="2.72"/><path class="cls-1" d="M73.36,122.36a2.72,2.72,0,1,0-2.73-2.72A2.72,2.72,0,0,0,73.36,122.36Z"/><circle class="cls-1" cx="79" cy="119.64" r="2.72"/><circle class="cls-1" cx="84.64" cy="119.64" r="2.72"/><circle class="cls-1" cx="90.28" cy="119.64" r="2.72"/><path class="cls-1" d="M95.92,122.36a2.72,2.72,0,1,0-2.72-2.72A2.72,2.72,0,0,0,95.92,122.36Z"/><circle class="cls-1" cx="101.56" cy="119.64" r="2.72"/><circle class="cls-1" cx="107.2" cy="119.64" r="2.72"/><circle class="cls-1" cx="112.85" cy="119.64" r="2.72"/><path class="cls-1" d="M118.49,122.36a2.72,2.72,0,1,0-2.72-2.72A2.72,2.72,0,0,0,118.49,122.36Z"/><path class="cls-1" d="M124.13,122.36a2.72,2.72,0,1,0-2.72-2.72A2.72,2.72,0,0,0,124.13,122.36Z"/><circle class="cls-1" cx="129.77" cy="119.64" r="2.47"/><circle class="cls-1" cx="135.41" cy="119.64" r="1.96"/><circle class="cls-1" cx="141.05" cy="119.64" r="1.5"/><path class="cls-1" d="M146.7,120.76a1.13,1.13,0,1,0-1.13-1.12A1.12,1.12,0,0,0,146.7,120.76Z"/><circle class="cls-1" cx="152.34" cy="119.64" r="0.8"/><circle class="cls-1" cx="157.98" cy="119.64" r="0.55"/><circle class="cls-1" cx="163.62" cy="119.64" r="0.36"/><path class="cls-1" d="M169.26,119.86a.22.22,0,1,0-.22-.22A.22.22,0,0,0,169.26,119.86Z"/><circle class="cls-1" cx="174.9" cy="119.64" r="0.11"/><path class="cls-1" d="M180.54,119.69a.05.05,0,0,0,.05,0,0,0,0,0,0-.05,0,0,0,0,0,0,0,0S180.52,119.69,180.54,119.69Z"/><path class="cls-1" d="M186.19,119.65a0,0,0,0,0,0,0,0,0,0,0,0,0,0,0,0,0,0,0,0,0S186.18,119.65,186.19,119.65Z"/><path class="cls-1" d="M5.66,125.3s0,0,0,0,0,0,0,0a0,0,0,0,0,0,0A0,0,0,0,0,5.66,125.26Z"/><path class="cls-1" d="M11.3,125.33a0,0,0,0,0,0-.1,0,0,0,1,0,0,.1Z"/><path class="cls-1" d="M16.94,125.37a.09.09,0,1,0-.09-.09A.09.09,0,0,0,16.94,125.37Z"/><path class="cls-1" d="M22.58,125.45a.17.17,0,0,0,.17-.17.16.16,0,0,0-.17-.17.17.17,0,0,0-.17.17A.18.18,0,0,0,22.58,125.45Z"/><path class="cls-1" d="M28.22,125.56a.28.28,0,0,0,0-.56.28.28,0,1,0,0,.56Z"/><path class="cls-1" d="M33.86,125.73a.45.45,0,1,0-.45-.45A.45.45,0,0,0,33.86,125.73Z"/><path class="cls-1" d="M39.51,125.94a.66.66,0,1,0-.66-.66A.66.66,0,0,0,39.51,125.94Z"/><path class="cls-1" d="M45.15,126.22a.94.94,0,1,0-.94-.94A.94.94,0,0,0,45.15,126.22Z"/><path class="cls-1" d="M50.79,126.55a1.27,1.27,0,1,0-1.27-1.27A1.27,1.27,0,0,0,50.79,126.55Z"/><circle class="cls-1" cx="56.43" cy="125.28" r="1.64"/><path class="cls-1" d="M62.07,127.34A2.07,2.07,0,1,0,60,125.28,2.07,2.07,0,0,0,62.07,127.34Z"/><path class="cls-1" d="M67.71,127.8a2.52,2.52,0,1,0-2.51-2.52A2.52,2.52,0,0,0,67.71,127.8Z"/><path class="cls-1" d="M73.36,128a2.72,2.72,0,1,0-2.73-2.72A2.72,2.72,0,0,0,73.36,128Z"/><path class="cls-1" d="M79,128a2.72,2.72,0,1,0-2.72-2.72A2.72,2.72,0,0,0,79,128Z"/><path class="cls-1" d="M84.64,128a2.72,2.72,0,1,0-2.72-2.72A2.72,2.72,0,0,0,84.64,128Z"/><path class="cls-1" d="M90.28,128a2.72,2.72,0,1,0-2.72-2.72A2.72,2.72,0,0,0,90.28,128Z"/><path class="cls-1" d="M95.92,128a2.72,2.72,0,1,0-2.72-2.72A2.72,2.72,0,0,0,95.92,128Z"/><path class="cls-1" d="M101.56,128a2.72,2.72,0,1,0-2.72-2.72A2.72,2.72,0,0,0,101.56,128Z"/><path class="cls-1" d="M107.2,128a2.72,2.72,0,1,0-2.72-2.72A2.72,2.72,0,0,0,107.2,128Z"/><path class="cls-1" d="M112.85,128a2.72,2.72,0,1,0-2.73-2.72A2.72,2.72,0,0,0,112.85,128Z"/><path class="cls-1" d="M118.49,128a2.72,2.72,0,1,0-2.72-2.72A2.72,2.72,0,0,0,118.49,128Z"/><path class="cls-1" d="M124.13,127.81a2.53,2.53,0,1,0-2.54-2.53A2.53,2.53,0,0,0,124.13,127.81Z"/><circle class="cls-1" cx="129.77" cy="125.28" r="2.11"/><path class="cls-1" d="M135.41,127a1.67,1.67,0,1,0-1.67-1.67A1.68,1.68,0,0,0,135.41,127Z"/><path class="cls-1" d="M141.05,126.56a1.28,1.28,0,1,0-1.28-1.28A1.28,1.28,0,0,0,141.05,126.56Z"/><path class="cls-1" d="M146.7,126.23a1,1,0,1,0-1-1A.95.95,0,0,0,146.7,126.23Z"/><path class="cls-1" d="M152.34,126a.69.69,0,1,0-.69-.69A.69.69,0,0,0,152.34,126Z"/><path class="cls-1" d="M158,125.75a.47.47,0,1,0-.47-.47A.47.47,0,0,0,158,125.75Z"/><path class="cls-1" d="M163.62,125.58a.3.3,0,1,0-.3-.3A.31.31,0,0,0,163.62,125.58Z"/><path class="cls-1" d="M169.26,125.45a.17.17,0,0,0,.17-.17.16.16,0,0,0-.17-.17.17.17,0,0,0-.17.17A.18.18,0,0,0,169.26,125.45Z"/><path class="cls-1" d="M174.9,125.37a.09.09,0,1,0,0-.18.09.09,0,0,0,0,.18Z"/><path class="cls-1" d="M180.54,125.33a0,0,0,1,0,0-.1.05.05,0,0,0,0,.1Z"/><path class="cls-1" d="M186.19,125.3a0,0,0,0,0,0,0,0,0,0,0,0,0,0,0,0,0,0,0,0,0A0,0,0,0,0,186.19,125.26Z"/><path class="cls-1" d="M5.66,130.94s0,0,0,0h0A0,0,0,0,0,5.66,130.94Z"/><circle class="cls-1" cx="11.3" cy="130.92" r="0.03"/><path class="cls-1" d="M16.94,131a.06.06,0,0,0,.06-.06.06.06,0,1,0-.12,0A.06.06,0,0,0,16.94,131Z"/><path class="cls-1" d="M22.58,131.05a.13.13,0,0,0,.13-.13.12.12,0,0,0-.13-.12.12.12,0,0,0-.12.12A.12.12,0,0,0,22.58,131.05Z"/><path class="cls-1" d="M28.22,131.16a.24.24,0,0,0,.24-.24.23.23,0,0,0-.24-.23.23.23,0,0,0-.23.23A.23.23,0,0,0,28.22,131.16Z"/><circle class="cls-1" cx="33.86" cy="130.92" r="0.36"/><path class="cls-1" d="M39.51,131.47a.55.55,0,1,0-.55-.55A.55.55,0,0,0,39.51,131.47Z"/><path class="cls-1" d="M45.15,131.69a.77.77,0,1,0-.77-.77A.77.77,0,0,0,45.15,131.69Z"/><path class="cls-1" d="M50.79,132a1,1,0,1,0-1-1.05A1,1,0,0,0,50.79,132Z"/><circle class="cls-1" cx="56.43" cy="130.92" r="1.36"/><path class="cls-1" d="M62.07,132.63a1.71,1.71,0,1,0,0-3.41,1.71,1.71,0,0,0,0,3.41Z"/><path class="cls-1" d="M67.71,133a2.08,2.08,0,1,0-2.08-2.08A2.08,2.08,0,0,0,67.71,133Z"/><path class="cls-1" d="M73.36,133.36a2.44,2.44,0,1,0-2.45-2.44A2.44,2.44,0,0,0,73.36,133.36Z"/><path class="cls-1" d="M79,133.6a2.68,2.68,0,1,0-2.68-2.68A2.68,2.68,0,0,0,79,133.6Z"/><path class="cls-1" d="M84.64,133.64a2.72,2.72,0,1,0-2.72-2.72A2.72,2.72,0,0,0,84.64,133.64Z"/><path class="cls-1" d="M90.28,133.64a2.72,2.72,0,1,0-2.72-2.72A2.72,2.72,0,0,0,90.28,133.64Z"/><path class="cls-1" d="M95.92,133.64a2.72,2.72,0,1,0-2.72-2.72A2.72,2.72,0,0,0,95.92,133.64Z"/><path class="cls-1" d="M101.56,133.64a2.72,2.72,0,1,0-2.72-2.72A2.72,2.72,0,0,0,101.56,133.64Z"/><path class="cls-1" d="M107.2,133.64a2.72,2.72,0,1,0-2.72-2.72A2.72,2.72,0,0,0,107.2,133.64Z"/><path class="cls-1" d="M112.85,133.6a2.68,2.68,0,1,0-2.68-2.68A2.68,2.68,0,0,0,112.85,133.6Z"/><path class="cls-1" d="M118.49,133.39a2.47,2.47,0,1,0-2.47-2.47A2.47,2.47,0,0,0,118.49,133.39Z"/><circle class="cls-1" cx="124.13" cy="130.92" r="2.11"/><path class="cls-1" d="M129.77,132.66a1.74,1.74,0,1,0-1.74-1.74A1.74,1.74,0,0,0,129.77,132.66Z"/><path class="cls-1" d="M135.41,132.3a1.38,1.38,0,1,0-1.37-1.38A1.38,1.38,0,0,0,135.41,132.3Z"/><path class="cls-1" d="M141.05,132a1.07,1.07,0,1,0,0-2.13,1.07,1.07,0,0,0,0,2.13Z"/><path class="cls-1" d="M146.7,131.7a.78.78,0,1,0-.79-.78A.78.78,0,0,0,146.7,131.7Z"/><path class="cls-1" d="M152.34,131.48a.56.56,0,0,0,0-1.12.56.56,0,1,0,0,1.12Z"/><path class="cls-1" d="M158,131.3a.37.37,0,0,0,.37-.38.36.36,0,0,0-.37-.37.37.37,0,0,0-.38.37A.38.38,0,0,0,158,131.3Z"/><path class="cls-1" d="M163.62,131.16a.23.23,0,0,0,.23-.24.23.23,0,0,0-.46,0A.23.23,0,0,0,163.62,131.16Z"/><circle class="cls-1" cx="169.26" cy="130.92" r="0.14"/><path class="cls-1" d="M174.9,131a.08.08,0,0,0,0-.16.08.08,0,0,0,0,.16Z"/><circle class="cls-1" cx="180.54" cy="130.92" r="0.03"/><path class="cls-1" d="M186.19,130.94a0,0,0,0,0,0,0h0A0,0,0,0,0,186.19,130.94Z"/><path class="cls-1" d="M11.3,136.58s0,0,0,0h0A0,0,0,0,0,11.3,136.58Z"/><path class="cls-1" d="M16.94,136.61a0,0,0,0,0,0-.05.05.05,0,0,0-.1,0A0,0,0,0,0,16.94,136.61Z"/><circle class="cls-1" cx="22.58" cy="136.56" r="0.09" transform="translate(-0.45 0.08) rotate(-0.19)"/><path class="cls-1" d="M28.22,136.73a.17.17,0,0,0,.18-.17.18.18,0,0,0-.18-.17.18.18,0,0,0-.17.17A.17.17,0,0,0,28.22,136.73Z"/><circle class="cls-1" cx="33.86" cy="136.56" r="0.28"/><circle class="cls-1" cx="39.51" cy="136.56" r="0.42"/><circle class="cls-1" cx="45.15" cy="136.56" r="0.61"/><path class="cls-1" d="M50.79,137.39a.83.83,0,1,0-.83-.83A.83.83,0,0,0,50.79,137.39Z"/><circle class="cls-1" cx="56.43" cy="136.56" r="1.08"/><circle class="cls-1" cx="62.07" cy="136.56" r="1.36"/><circle class="cls-1" cx="67.71" cy="136.56" r="1.64"/><path class="cls-1" d="M73.36,138.5a1.94,1.94,0,1,0-1.94-1.94A1.94,1.94,0,0,0,73.36,138.5Z"/><path class="cls-1" d="M79,138.77a2.21,2.21,0,1,0-2.21-2.21A2.2,2.2,0,0,0,79,138.77Z"/><path class="cls-1" d="M84.64,139a2.41,2.41,0,1,0-2.41-2.41A2.41,2.41,0,0,0,84.64,139Z"/><circle class="cls-1" cx="90.28" cy="136.56" r="2.53"/><path class="cls-1" d="M95.92,139.13a2.57,2.57,0,1,0-2.56-2.57A2.57,2.57,0,0,0,95.92,139.13Z"/><circle class="cls-1" cx="101.56" cy="136.56" r="2.53"/><circle class="cls-1" cx="107.2" cy="136.56" r="2.42"/><circle class="cls-1" cx="112.85" cy="136.56" r="2.22"/><path class="cls-1" d="M118.49,138.52a2,2,0,1,0-2-2A2,2,0,0,0,118.49,138.52Z"/><path class="cls-1" d="M124.13,138.24a1.68,1.68,0,1,0-1.67-1.68A1.68,1.68,0,0,0,124.13,138.24Z"/><path class="cls-1" d="M129.77,137.94a1.38,1.38,0,1,0-1.38-1.38A1.38,1.38,0,0,0,129.77,137.94Z"/><circle class="cls-1" cx="135.41" cy="136.56" r="1.1"/><path class="cls-1" d="M141.05,137.41a.85.85,0,1,0-.84-.85A.85.85,0,0,0,141.05,137.41Z"/><path class="cls-1" d="M146.7,137.19a.63.63,0,1,0-.63-.63A.63.63,0,0,0,146.7,137.19Z"/><circle class="cls-1" cx="152.34" cy="136.56" r="0.44"/><circle class="cls-1" cx="157.98" cy="136.56" r="0.3"/><path class="cls-1" d="M163.62,136.73a.17.17,0,0,0,.17-.17.18.18,0,0,0-.17-.17.17.17,0,0,0-.17.17A.16.16,0,0,0,163.62,136.73Z"/><path class="cls-1" d="M169.26,136.66a.11.11,0,0,0,.1-.1.1.1,0,0,0-.1-.09.09.09,0,0,0-.09.09A.1.1,0,0,0,169.26,136.66Z"/><circle class="cls-1" cx="174.9" cy="136.56" r="0.05"/><path class="cls-1" d="M180.54,136.58a0,0,0,0,0,0,0h0Z"/><path class="cls-1" d="M11.3,142.22s0,0,0,0h0A0,0,0,0,0,11.3,142.22Z"/><path class="cls-1" d="M16.94,142.24s0,0,0,0a0,0,0,1,0-.06,0S16.92,142.24,16.94,142.24Z"/><circle class="cls-1" cx="22.58" cy="142.2" r="0.06"/><path class="cls-1" d="M28.22,142.33a.13.13,0,0,0,.13-.13.13.13,0,0,0-.13-.12.12.12,0,0,0-.12.12A.12.12,0,0,0,28.22,142.33Z"/><path class="cls-1" d="M33.86,142.41a.21.21,0,0,0,.21-.21.2.2,0,0,0-.21-.2.2.2,0,0,0-.2.2A.2.2,0,0,0,33.86,142.41Z"/><circle class="cls-1" cx="39.51" cy="142.2" r="0.31"/><circle class="cls-1" cx="45.15" cy="142.2" r="0.47"/><path class="cls-1" d="M50.79,142.83a.63.63,0,1,0,0-1.25.63.63,0,1,0,0,1.25Z"/><circle class="cls-1" cx="56.43" cy="142.2" r="0.83"/><circle class="cls-1" cx="62.07" cy="142.2" r="1.05"/><path class="cls-1" d="M67.71,143.47a1.27,1.27,0,1,0,0-2.53,1.27,1.27,0,0,0,0,2.53Z"/><path class="cls-1" d="M73.36,143.69a1.49,1.49,0,1,0-1.49-1.49A1.48,1.48,0,0,0,73.36,143.69Z"/><path class="cls-1" d="M79,143.89a1.69,1.69,0,1,0-1.69-1.69A1.69,1.69,0,0,0,79,143.89Z"/><circle class="cls-1" cx="84.64" cy="142.2" r="1.85"/><circle class="cls-1" cx="90.28" cy="142.2" r="1.96"/><path class="cls-1" d="M95.92,144.19a2,2,0,1,0-2-2A2,2,0,0,0,95.92,144.19Z"/><path class="cls-1" d="M101.56,144.16a2,2,0,1,0-2-2A2,2,0,0,0,101.56,144.16Z"/><circle class="cls-1" cx="107.2" cy="142.2" r="1.86"/><circle class="cls-1" cx="112.85" cy="142.2" r="1.71"/><circle class="cls-1" cx="118.49" cy="142.2" r="1.5"/><circle class="cls-1" cx="124.13" cy="142.2" r="1.28"/><circle class="cls-1" cx="129.77" cy="142.2" r="1.06"/><path class="cls-1" d="M135.41,143.05a.85.85,0,1,0-.84-.85A.85.85,0,0,0,135.41,143.05Z"/><circle class="cls-1" cx="141.05" cy="142.2" r="0.64"/><path class="cls-1" d="M146.7,142.67a.47.47,0,1,0-.47-.47A.47.47,0,0,0,146.7,142.67Z"/><circle class="cls-1" cx="152.34" cy="142.2" r="0.33"/><circle class="cls-1" cx="157.98" cy="142.2" r="0.22"/><path class="cls-1" d="M163.62,142.33a.12.12,0,0,0,.12-.13.12.12,0,0,0-.12-.12.13.13,0,0,0-.13.12A.13.13,0,0,0,163.62,142.33Z"/><path class="cls-1" d="M169.26,142.27s.06,0,.06-.07a.06.06,0,0,0-.06-.06.06.06,0,0,0-.06.06A.07.07,0,0,0,169.26,142.27Z"/><circle class="cls-1" cx="174.9" cy="142.2" r="0.03"/><path class="cls-1" d="M180.54,142.22a0,0,0,0,0,0,0h0A0,0,0,0,0,180.54,142.22Z"/><path class="cls-1" d="M16.94,147.86h0l0,0,0,0Z"/><path class="cls-1" d="M22.58,147.89a0,0,0,0,0,.05,0,0,0,0,0,0-.05,0,.05.05,0,0,0,0,0S22.56,147.89,22.58,147.89Z"/><path class="cls-1" d="M28.22,147.92a.07.07,0,0,0,.08-.07.07.07,0,0,0-.08-.08.07.07,0,0,0-.07.08A.07.07,0,0,0,28.22,147.92Z"/><circle class="cls-1" cx="33.86" cy="147.85" r="0.14"/><path class="cls-1" d="M39.51,148.06a.22.22,0,1,0-.22-.21A.21.21,0,0,0,39.51,148.06Z"/><path class="cls-1" d="M45.15,148.17a.33.33,0,1,0-.33-.32A.32.32,0,0,0,45.15,148.17Z"/><path class="cls-1" d="M50.79,148.32a.47.47,0,1,0-.47-.47A.47.47,0,0,0,50.79,148.32Z"/><circle class="cls-1" cx="56.43" cy="147.85" r="0.61"/><circle class="cls-1" cx="62.07" cy="147.85" r="0.78"/><path class="cls-1" d="M67.71,148.78a.94.94,0,1,0-.93-.93A.94.94,0,0,0,67.71,148.78Z"/><path class="cls-1" d="M73.36,149a1.11,1.11,0,1,0-1.12-1.11A1.11,1.11,0,0,0,73.36,149Z"/><circle class="cls-1" cx="79" cy="147.85" r="1.25"/><circle class="cls-1" cx="84.64" cy="147.85" r="1.36"/><path class="cls-1" d="M90.28,149.29a1.44,1.44,0,1,0-1.44-1.44A1.45,1.45,0,0,0,90.28,149.29Z"/><path class="cls-1" d="M95.92,149.32a1.47,1.47,0,1,0-1.47-1.47A1.47,1.47,0,0,0,95.92,149.32Z"/><path class="cls-1" d="M101.56,149.3a1.46,1.46,0,1,0-1.45-1.45A1.45,1.45,0,0,0,101.56,149.3Z"/><path class="cls-1" d="M107.2,149.22a1.38,1.38,0,1,0-1.37-1.37A1.37,1.37,0,0,0,107.2,149.22Z"/><path class="cls-1" d="M112.85,149.11a1.27,1.27,0,0,0,0-2.53,1.27,1.27,0,1,0,0,2.53Z"/><path class="cls-1" d="M118.49,149a1.13,1.13,0,1,0-1.13-1.12A1.12,1.12,0,0,0,118.49,149Z"/><path class="cls-1" d="M124.13,148.8a1,1,0,0,0,0-1.91,1,1,0,1,0,0,1.91Z"/><circle class="cls-1" cx="129.77" cy="147.85" r="0.78"/><path class="cls-1" d="M135.41,148.47a.63.63,0,1,0-.62-.62A.63.63,0,0,0,135.41,148.47Z"/><path class="cls-1" d="M141.05,148.32a.47.47,0,1,0-.47-.47A.47.47,0,0,0,141.05,148.32Z"/><path class="cls-1" d="M146.7,148.19a.34.34,0,0,0,.34-.34.35.35,0,0,0-.34-.35.35.35,0,0,0-.35.35A.35.35,0,0,0,146.7,148.19Z"/><path class="cls-1" d="M152.34,148.08a.23.23,0,0,0,.23-.23.23.23,0,0,0-.23-.24.24.24,0,0,0-.24.24A.23.23,0,0,0,152.34,148.08Z"/><path class="cls-1" d="M158,148a.14.14,0,0,0,.14-.14.14.14,0,1,0-.28,0A.14.14,0,0,0,158,148Z"/><path class="cls-1" d="M163.62,147.94a.09.09,0,0,0,.09-.09.09.09,0,1,0-.18,0A.09.09,0,0,0,163.62,147.94Z"/><path class="cls-1" d="M169.26,147.89a0,0,0,0,0,.05,0,0,0,0,0,0-.05,0,.05.05,0,0,0,0,0S169.24,147.89,169.26,147.89Z"/><path class="cls-1" d="M174.9,147.86h0l0,0s0,0,0,0A0,0,0,0,0,174.9,147.86Z"/><path class="cls-1" d="M16.94,153.5h0a0,0,0,0,0,0,0,0,0,0,0,0,0,0Z"/><path class="cls-1" d="M22.58,153.5h0a0,0,0,0,0,0,0s0,0,0,0Z"/><path class="cls-1" d="M28.22,153.53a0,0,0,0,0,.05,0,0,0,0,0,0-.05-.05,0,0,0,0,0,0,.05A0,0,0,0,0,28.22,153.53Z"/><path class="cls-1" d="M33.86,153.58a.09.09,0,0,0,.1-.09.1.1,0,0,0-.1-.1.1.1,0,0,0-.09.1A.09.09,0,0,0,33.86,153.58Z"/><path class="cls-1" d="M39.51,153.64a.15.15,0,0,0,.15-.15.16.16,0,0,0-.15-.16.16.16,0,0,0-.16.16A.16.16,0,0,0,39.51,153.64Z"/><path class="cls-1" d="M45.15,153.71a.22.22,0,1,0-.22-.22A.22.22,0,0,0,45.15,153.71Z"/><path class="cls-1" d="M50.79,153.82a.33.33,0,1,0-.33-.33A.33.33,0,0,0,50.79,153.82Z"/><path class="cls-1" d="M56.43,153.93a.44.44,0,1,0-.44-.44A.44.44,0,0,0,56.43,153.93Z"/><path class="cls-1" d="M62.07,154a.55.55,0,0,0,.55-.54.55.55,0,1,0-1.1,0A.55.55,0,0,0,62.07,154Z"/><path class="cls-1" d="M67.71,154.16a.67.67,0,0,0,.68-.67.68.68,0,1,0-1.35,0A.67.67,0,0,0,67.71,154.16Z"/><path class="cls-1" d="M73.36,154.29a.8.8,0,1,0-.8-.8A.79.79,0,0,0,73.36,154.29Z"/><path class="cls-1" d="M79,154.39a.91.91,0,0,0,0-1.81.91.91,0,1,0,0,1.81Z"/><path class="cls-1" d="M84.64,154.47a1,1,0,1,0-1-1A1,1,0,0,0,84.64,154.47Z"/><circle class="cls-1" cx="90.28" cy="153.49" r="1.03"/><path class="cls-1" d="M95.92,154.55a1.07,1.07,0,1,0-1.06-1.06A1.07,1.07,0,0,0,95.92,154.55Z"/><path class="cls-1" d="M101.56,154.54a1,1,0,1,0-1-1A1,1,0,0,0,101.56,154.54Z"/><path class="cls-1" d="M107.2,154.47a1,1,0,1,0-1-1A1,1,0,0,0,107.2,154.47Z"/><path class="cls-1" d="M112.85,154.39a.91.91,0,0,0,0-1.81.91.91,0,1,0,0,1.81Z"/><path class="cls-1" d="M118.49,154.29a.8.8,0,1,0-.8-.8A.8.8,0,0,0,118.49,154.29Z"/><path class="cls-1" d="M124.13,154.18a.69.69,0,1,0-.69-.69A.69.69,0,0,0,124.13,154.18Z"/><path class="cls-1" d="M129.77,154.05a.56.56,0,0,0,.56-.56.56.56,0,1,0-1.12,0A.56.56,0,0,0,129.77,154.05Z"/><path class="cls-1" d="M135.41,153.93a.44.44,0,1,0-.44-.44A.44.44,0,0,0,135.41,153.93Z"/><path class="cls-1" d="M141.05,153.82a.33.33,0,1,0-.32-.33A.33.33,0,0,0,141.05,153.82Z"/><path class="cls-1" d="M146.7,153.72a.23.23,0,0,0,.23-.23.24.24,0,1,0-.47,0A.23.23,0,0,0,146.7,153.72Z"/><path class="cls-1" d="M152.34,153.64a.15.15,0,0,0,.15-.15.16.16,0,0,0-.15-.16.16.16,0,0,0-.16.16A.16.16,0,0,0,152.34,153.64Z"/><path class="cls-1" d="M158,153.58a.09.09,0,0,0,.09-.09.1.1,0,0,0-.09-.1.11.11,0,0,0-.1.1A.1.1,0,0,0,158,153.58Z"/><path class="cls-1" d="M163.62,153.53a0,0,0,0,0,0,0,.05.05,0,1,0-.1,0A0,0,0,0,0,163.62,153.53Z"/><path class="cls-1" d="M169.26,153.5h0a0,0,0,0,0,0,0s0,0,0,0Z"/><path class="cls-1" d="M174.9,153.5h0a0,0,0,0,0,0,0s0,0,0,0Z"/><path class="cls-1" d="M22.58,159.14h0l0,0s0,0,0,0Z"/><path class="cls-1" d="M28.22,159.16a0,0,0,1,0,0-.06,0,0,0,1,0,0,.06Z"/><path class="cls-1" d="M33.86,159.18a.05.05,0,0,0,0-.05,0,0,0,0,0,0,0,0,0,0,0,0,0,0S33.84,159.18,33.86,159.18Z"/><path class="cls-1" d="M39.51,159.22a.09.09,0,0,0,0-.18.09.09,0,1,0,0,.18Z"/><circle class="cls-1" cx="45.15" cy="159.13" r="0.14"/><path class="cls-1" d="M50.79,159.33a.2.2,0,1,0-.2-.2A.2.2,0,0,0,50.79,159.33Z"/><circle class="cls-1" cx="56.43" cy="159.13" r="0.28"/><path class="cls-1" d="M62.07,159.5a.37.37,0,0,0,.38-.37.38.38,0,1,0-.75,0A.37.37,0,0,0,62.07,159.5Z"/><path class="cls-1" d="M67.71,159.58a.45.45,0,1,0,0-.9.45.45,0,1,0,0,.9Z"/><path class="cls-1" d="M73.36,159.68a.55.55,0,1,0-.55-.55A.55.55,0,0,0,73.36,159.68Z"/><path class="cls-1" d="M79,159.75a.63.63,0,1,0-.63-.62A.62.62,0,0,0,79,159.75Z"/><circle class="cls-1" cx="84.64" cy="159.13" r="0.67"/><circle class="cls-1" cx="90.28" cy="159.13" r="0.72"/><path class="cls-1" d="M95.92,159.86a.73.73,0,0,0,.74-.73.74.74,0,1,0-1.47,0A.73.73,0,0,0,95.92,159.86Z"/><circle class="cls-1" cx="101.56" cy="159.13" r="0.72"/><circle class="cls-1" cx="107.2" cy="159.13" r="0.69"/><path class="cls-1" d="M112.85,159.75a.63.63,0,1,0-.63-.62A.62.62,0,0,0,112.85,159.75Z"/><path class="cls-1" d="M118.49,159.68a.55.55,0,1,0-.55-.55A.55.55,0,0,0,118.49,159.68Z"/><circle class="cls-1" cx="124.13" cy="159.13" r="0.47"/><path class="cls-1" d="M129.77,159.5a.37.37,0,0,0,.38-.37.38.38,0,0,0-.38-.38.37.37,0,0,0-.37.38A.36.36,0,0,0,129.77,159.5Z"/><circle class="cls-1" cx="135.41" cy="159.13" r="0.3"/><circle class="cls-1" cx="141.05" cy="159.13" r="0.22"/><path class="cls-1" d="M146.7,159.27a.14.14,0,0,0,0-.28.14.14,0,1,0,0,.28Z"/><path class="cls-1" d="M152.34,159.22a.09.09,0,0,0,0-.18.09.09,0,1,0,0,.18Z"/><circle class="cls-1" cx="157.98" cy="159.13" r="0.05"/><path class="cls-1" d="M163.62,159.16a0,0,0,0,0,0-.06,0,0,0,0,0,0,.06A0,0,0,0,0,163.62,159.16Z"/><path class="cls-1" d="M169.26,159.14h0l0,0s0,0,0,0Z"/><path class="cls-1" d="M28.22,164.79l0,0a0,0,0,0,0,0,0s0,0,0,0S28.21,164.79,28.22,164.79Z"/><circle class="cls-1" cx="33.86" cy="164.77" r="0.03"/><circle class="cls-1" cx="39.51" cy="164.77" r="0.05"/><circle class="cls-1" cx="45.15" cy="164.77" r="0.08"/><path class="cls-1" d="M50.79,164.9a.12.12,0,0,0,.12-.13.12.12,0,0,0-.12-.12.12.12,0,0,0-.13.12A.13.13,0,0,0,50.79,164.9Z"/><circle class="cls-1" cx="56.43" cy="164.77" r="0.17"/><path class="cls-1" d="M62.07,165a.24.24,0,0,0,.24-.24.23.23,0,0,0-.24-.23.23.23,0,0,0-.23.23A.23.23,0,0,0,62.07,165Z"/><path class="cls-1" d="M67.71,165.07a.3.3,0,1,0-.29-.3A.3.3,0,0,0,67.71,165.07Z"/><path class="cls-1" d="M73.36,165.11a.34.34,0,1,0,0-.68.34.34,0,1,0,0,.68Z"/><path class="cls-1" d="M79,165.18a.4.4,0,0,0,.4-.41.41.41,0,1,0-.81,0A.41.41,0,0,0,79,165.18Z"/><circle class="cls-1" cx="84.64" cy="164.77" r="0.44"/><circle class="cls-1" cx="90.28" cy="164.77" r="0.47"/><path class="cls-1" d="M95.92,165.26a.49.49,0,0,0,.49-.49.48.48,0,0,0-.49-.48.47.47,0,0,0-.48.48A.48.48,0,0,0,95.92,165.26Z"/><circle class="cls-1" cx="101.56" cy="164.77" r="0.47"/><circle class="cls-1" cx="107.2" cy="164.77" r="0.44"/><path class="cls-1" d="M112.85,165.18a.4.4,0,0,0,.4-.41.41.41,0,1,0-.81,0A.41.41,0,0,0,112.85,165.18Z"/><circle class="cls-1" cx="118.49" cy="164.77" r="0.36"/><path class="cls-1" d="M124.13,165.07a.3.3,0,1,0,0-.6.3.3,0,1,0,0,.6Z"/><path class="cls-1" d="M129.77,165a.24.24,0,0,0,.24-.24.23.23,0,0,0-.24-.23.23.23,0,0,0-.23.23A.23.23,0,0,0,129.77,165Z"/><circle class="cls-1" cx="135.41" cy="164.77" r="0.17"/><path class="cls-1" d="M141.05,164.9a.13.13,0,0,0,.13-.13.12.12,0,0,0-.13-.12.12.12,0,0,0-.12.12A.12.12,0,0,0,141.05,164.9Z"/><path class="cls-1" d="M146.7,164.86a.09.09,0,1,0,0-.18.09.09,0,1,0,0,.18Z"/><circle class="cls-1" cx="152.34" cy="164.77" r="0.05"/><circle class="cls-1" cx="157.98" cy="164.77" r="0.03"/><path class="cls-1" d="M163.62,164.79l0,0a0,0,0,0,0,0,0,0,0,0,0,0,0,0Z"/><path class="cls-1" d="M33.86,170.43l0,0h0Z"/><path class="cls-1" d="M39.51,170.43v0h0Z"/><path class="cls-1" d="M45.15,170.46a0,0,0,0,0,0-.05,0,0,0,0,0,0,0,0,0,0,0,0,0,0A0,0,0,0,0,45.15,170.46Z"/><path class="cls-1" d="M50.79,170.47a.06.06,0,0,0,.06-.06.06.06,0,0,0-.06-.06.06.06,0,0,0-.06.06A.05.05,0,0,0,50.79,170.47Z"/><path class="cls-1" d="M56.43,170.51a.1.1,0,0,0,.09-.1.09.09,0,1,0-.18,0A.1.1,0,0,0,56.43,170.51Z"/><circle class="cls-1" cx="62.07" cy="170.41" r="0.14"/><path class="cls-1" d="M67.71,170.58a.17.17,0,0,0,.18-.17.18.18,0,0,0-.18-.17.18.18,0,0,0-.17.17A.17.17,0,0,0,67.71,170.58Z"/><path class="cls-1" d="M73.36,170.62a.21.21,0,0,0,.2-.21.2.2,0,0,0-.2-.2.2.2,0,0,0-.21.2A.21.21,0,0,0,73.36,170.62Z"/><circle class="cls-1" cx="79" cy="170.41" r="0.25"/><path class="cls-1" d="M84.64,170.68a.27.27,0,0,0,0-.53.27.27,0,1,0,0,.53Z"/><circle class="cls-1" cx="90.28" cy="170.41" r="0.28"/><path class="cls-1" d="M95.92,170.71a.29.29,0,0,0,.3-.3.3.3,0,0,0-.3-.3.31.31,0,0,0-.3.3A.3.3,0,0,0,95.92,170.71Z"/><circle class="cls-1" cx="101.56" cy="170.41" r="0.28"/><path class="cls-1" d="M107.2,170.68a.27.27,0,1,0,0-.53.27.27,0,0,0,0,.53Z"/><circle class="cls-1" cx="112.85" cy="170.41" r="0.25"/><path class="cls-1" d="M118.49,170.63a.22.22,0,1,0-.22-.22A.22.22,0,0,0,118.49,170.63Z"/><path class="cls-1" d="M124.13,170.58a.17.17,0,0,0,.17-.17.18.18,0,0,0-.17-.17.17.17,0,0,0-.17.17A.16.16,0,0,0,124.13,170.58Z"/><path class="cls-1" d="M129.77,170.55a.14.14,0,1,0-.14-.14A.14.14,0,0,0,129.77,170.55Z"/><path class="cls-1" d="M135.41,170.51a.11.11,0,0,0,.1-.1.1.1,0,0,0-.1-.09.09.09,0,0,0-.09.09A.1.1,0,0,0,135.41,170.51Z"/><path class="cls-1" d="M141.05,170.47s.07,0,.07-.06a.07.07,0,0,0-.07-.06.06.06,0,0,0-.06.06A.06.06,0,0,0,141.05,170.47Z"/><path class="cls-1" d="M146.7,170.46a0,0,0,0,0,0-.05,0,0,0,0,0,0,0,0,0,0,0,0,0,0A0,0,0,0,0,146.7,170.46Z"/><path class="cls-1" d="M152.34,170.43s0,0,0,0h0Z"/><path class="cls-1" d="M158,170.43s0,0,0,0h0Z"/><path class="cls-1" d="M39.51,176.07v0a0,0,0,0,0,0,0s0,0,0,0Z"/><path class="cls-1" d="M45.15,176.07s0,0,0,0,0,0,0,0,0,0,0,0Z"/><path class="cls-1" d="M50.79,176.08a0,0,0,0,0,0,0,0,0,0,0,0-.06,0A0,0,0,0,0,50.79,176.08Z"/><path class="cls-1" d="M56.43,176.1a0,0,0,0,0,0,0,0,0,0,0,0,0,0s0,0,0,0A.05.05,0,0,0,56.43,176.1Z"/><path class="cls-1" d="M62.07,176.12a.07.07,0,0,0,.07-.07.07.07,0,0,0-.07-.06.06.06,0,0,0-.06.06A.07.07,0,0,0,62.07,176.12Z"/><path class="cls-1" d="M67.71,176.15a.09.09,0,0,0,.1-.1.09.09,0,0,0-.1-.09.09.09,0,0,0-.09.09A.09.09,0,0,0,67.71,176.15Z"/><path class="cls-1" d="M73.36,176.16a.11.11,0,0,0,0-.22.11.11,0,1,0,0,.22Z"/><circle class="cls-1" cx="79" cy="176.05" r="0.14"/><path class="cls-1" d="M84.64,176.21a.16.16,0,0,0,.15-.16.15.15,0,0,0-.15-.15.16.16,0,0,0-.16.15A.16.16,0,0,0,84.64,176.21Z"/><path class="cls-1" d="M90.28,176.23a.17.17,0,0,0,.17-.18.17.17,0,0,0-.17-.17.18.18,0,0,0-.17.17A.18.18,0,0,0,90.28,176.23Z"/><path class="cls-1" d="M95.92,176.23a.17.17,0,0,0,.17-.18.17.17,0,0,0-.17-.17.18.18,0,0,0-.17.17A.18.18,0,0,0,95.92,176.23Z"/><path class="cls-1" d="M101.56,176.23a.18.18,0,0,0,.18-.18.18.18,0,0,0-.18-.17.18.18,0,0,0-.17.17A.18.18,0,0,0,101.56,176.23Z"/><path class="cls-1" d="M107.2,176.21a.16.16,0,0,0,.16-.16.16.16,0,0,0-.16-.15.15.15,0,0,0-.15.15A.16.16,0,0,0,107.2,176.21Z"/><circle class="cls-1" cx="112.85" cy="176.05" r="0.14"/><circle class="cls-1" cx="118.49" cy="176.05" r="0.11"/><path class="cls-1" d="M124.13,176.15a.09.09,0,0,0,.09-.1.09.09,0,0,0-.18,0A.09.09,0,0,0,124.13,176.15Z"/><path class="cls-1" d="M129.77,176.13a.08.08,0,0,0,.08-.08.08.08,0,0,0-.16,0A.08.08,0,0,0,129.77,176.13Z"/><path class="cls-1" d="M135.41,176.1a0,0,0,0,0,.05,0,0,0,0,0,0-.05,0,0,0,0,0,0,0,0A0,0,0,0,0,135.41,176.1Z"/><path class="cls-1" d="M141.05,176.08a0,0,0,0,0,0,0,0,0,0,0,0,0,0,0,0,0,0,0,0,0A0,0,0,0,0,141.05,176.08Z"/><path class="cls-1" d="M146.7,176.07v0a0,0,0,0,0,0,0s0,0,0,0Z"/><path class="cls-1" d="M152.34,176.07s0,0,0,0,0,0,0,0,0,0,0,0Z"/><path class="cls-1" d="M50.79,181.71a0,0,0,0,0,0,0s0,0,0,0l0,0Z"/><path class="cls-1" d="M56.43,181.71h0l0,0s0,0,0,0A0,0,0,0,0,56.43,181.71Z"/><circle class="cls-1" cx="62.07" cy="181.7" r="0.03"/><path class="cls-1" d="M67.71,181.74a0,0,0,0,0,.05,0,0,0,0,0,0-.05,0,0,0,0,0,0,0,0A0,0,0,0,0,67.71,181.74Z"/><path class="cls-1" d="M73.36,181.74a0,0,0,0,0,0,0,0,0,0,0,0,0,0,0,0,0,0,0,0,0A0,0,0,0,0,73.36,181.74Z"/><path class="cls-1" d="M79,181.76a.06.06,0,0,0,.06-.06.07.07,0,0,0-.06-.07.07.07,0,0,0-.07.07A.07.07,0,0,0,79,181.76Z"/><circle class="cls-1" cx="84.64" cy="181.7" r="0.08"/><circle class="cls-1" cx="90.28" cy="181.7" r="0.08"/><path class="cls-1" d="M95.92,181.79a.1.1,0,0,0,.1-.09.1.1,0,0,0-.1-.1.09.09,0,0,0-.09.1A.09.09,0,0,0,95.92,181.79Z"/><path class="cls-1" d="M101.56,181.77a.07.07,0,0,0,.08-.07.07.07,0,0,0-.08-.08.08.08,0,0,0-.08.08A.08.08,0,0,0,101.56,181.77Z"/><circle class="cls-1" cx="107.2" cy="181.7" r="0.08"/><circle class="cls-1" cx="112.85" cy="181.7" r="0.06"/><path class="cls-1" d="M118.49,181.74a0,0,0,0,0,0,0,0,0,0,0,0,0,0,0,0,0,0,0,0,0A0,0,0,0,0,118.49,181.74Z"/><path class="cls-1" d="M124.13,181.74a0,0,0,0,0,.05,0,.05.05,0,0,0-.1,0A0,0,0,0,0,124.13,181.74Z"/><circle class="cls-1" cx="129.77" cy="181.7" r="0.03"/><path class="cls-1" d="M135.41,181.71h0l0,0s0,0,0,0A0,0,0,0,0,135.41,181.71Z"/><path class="cls-1" d="M141.05,181.71h0l0,0v0Z"/><path class="cls-1" d="M62.07,187.35h0l0,0s0,0,0,0Z"/><path class="cls-1" d="M67.71,187.35h0l0,0v0Z"/><path class="cls-1" d="M73.36,187.35h0v0a0,0,0,0,0,0,0Z"/><circle class="cls-1" cx="79" cy="187.34" r="0.03"/><circle class="cls-1" cx="84.64" cy="187.34" r="0.03"/><circle class="cls-1" cx="90.28" cy="187.34" r="0.03"/><path class="cls-1" d="M95.92,187.37a0,0,0,0,0,0,0,0,0,0,1,0-.06,0A0,0,0,0,0,95.92,187.37Z"/><circle class="cls-1" cx="101.56" cy="187.34" r="0.03"/><circle class="cls-1" cx="107.2" cy="187.34" r="0.03"/><circle class="cls-1" cx="112.85" cy="187.34" r="0.03"/><path class="cls-1" d="M118.49,187.35h0s0,0,0,0l0,0Z"/><path class="cls-1" d="M124.13,187.35h0s0,0,0,0l0,0Z"/><path class="cls-1" d="M129.77,187.35h0l0,0a0,0,0,0,0,0,0Z"/><path class="cls-1" d="M79,193s0,0,0,0,0,0,0,0l0,0S79,193,79,193Z"/><path class="cls-1" d="M84.64,193s0,0,0,0,0,0,0,0l0,0S84.63,193,84.64,193Z"/><path class="cls-1" d="M90.28,193s0,0,0,0l0,0,0,0S90.27,193,90.28,193Z"/><path class="cls-1" d="M95.92,193s0,0,0,0l0,0s0,0,0,0S95.91,193,95.92,193Z"/><path class="cls-1" d="M101.56,193s0,0,0,0l0,0s0,0,0,0S101.55,193,101.56,193Z"/><path class="cls-1" d="M107.2,193s0,0,0,0l0,0v0A0,0,0,0,0,107.2,193Z"/><path class="cls-1" d="M112.85,193a0,0,0,0,0,0,0v0l0,0S112.84,193,112.85,193Z"/><path d="M166.79,52a.56.56,0,0,1-.48-.26.58.58,0,0,1,.18-.78l31-19.39a.56.56,0,0,1,.77.18.55.55,0,0,1-.17.77L167.09,52A.58.58,0,0,1,166.79,52Z"/><path d="M194.13,134.57a.69.69,0,0,1-.24,0l-16.48-7.7a.56.56,0,0,1,.47-1l16.49,7.69a.56.56,0,0,1,.27.74A.56.56,0,0,1,194.13,134.57Z"/><path d="M2,148a.55.55,0,0,1-.5-.31.56.56,0,0,1,.24-.75l21.09-10.74a.56.56,0,0,1,.76.25.56.56,0,0,1-.25.75L2.28,147.93A.57.57,0,0,1,2,148Z"/><path d="M36.39,69.39h-.11L2,62.83a.56.56,0,1,1,.21-1.1l34.31,6.55a.56.56,0,0,1-.1,1.11Z"/><path d="M40.4,42.15a.6.6,0,0,1-.29-.08L12.5,24.81a.56.56,0,0,1,.59-.95L40.7,41.11a.58.58,0,0,1,.18.78A.56.56,0,0,1,40.4,42.15Z"/><path d="M208.36,93.36h0l-13.42-.77a.56.56,0,0,1,.06-1.12l13.42.77a.56.56,0,0,1,.53.59A.57.57,0,0,1,208.36,93.36Z"/><path d="M46.81,165.1l-.18,0a.56.56,0,0,1-.35-.71l4.26-12.75a.55.55,0,0,1,.71-.36.56.56,0,0,1,.35.71l-4.26,12.75A.55.55,0,0,1,46.81,165.1Z"/><path d="M132.43,26.81a.56.56,0,0,1-.46-.88L150,.24a.57.57,0,0,1,.79-.14.56.56,0,0,1,.13.78l-18,25.69A.55.55,0,0,1,132.43,26.81Z"/><path d="M97.35,179a.56.56,0,0,1-.56-.5l-3-29a.56.56,0,0,1,1.12-.11l3,28.95a.56.56,0,0,1-.5.62Z"/><path d="M85.65,28a.55.55,0,0,1-.52-.35l-4.6-11.89a.56.56,0,1,1,1-.41l4.6,11.89a.56.56,0,0,1-.32.73A.64.64,0,0,1,85.65,28Z"/><path d="M15.57,99.24a.56.56,0,0,1-.56-.51.58.58,0,0,1,.52-.61l10-.76a.55.55,0,0,1,.6.51.58.58,0,0,1-.52.61l-10,.76Z"/><path d="M144.36,163.17a.57.57,0,0,1-.5-.32l-8.1-16.33a.56.56,0,0,1,1-.5l8.1,16.34a.57.57,0,0,1-.26.75A.54.54,0,0,1,144.36,163.17Z"/><path class="cls-2" d="M136.09,30.24c-10.44-5.84-19-2.76-26.39,1.4-20.65,11.65-27.3,6-46.91,7.14C39.44,40.16,36.87,59,43.34,73c2.68,5.79,5.93,11.74,4.24,18.32-1.31,5.13-6.06,9.77-9,14.21C28,121.7,35.47,144.06,66,145.49c18.1.84,28.05-6.81,42.21-16.76,13.35-9.38,26.89-10.5,42.84-10.34,38,.4,63.54-39.89,2.86-65.41C144.45,49,144.47,34.92,136.09,30.24Z"/><path class="cls-3" d="M68.69,146.67q-1.32,0-2.7-.06c-14.82-.69-25.65-6.31-30.5-15.81-4.06-7.94-3.24-17.63,2.18-25.91.92-1.4,2-2.77,3.09-4.22,2.4-3.11,4.88-6.33,5.74-9.66C47.94,85.39,45.44,80.08,43,75l-.7-1.5c-4.18-9-4.25-18.48-.19-25.27,2.63-4.4,8.34-9.79,20.6-10.52a123,123,0,0,1,14.74.14c10.09.54,17.38.93,31.67-7.14,7.39-4.17,16.43-7.59,27.5-1.4h0c4.28,2.38,6.48,7,8.62,11.38,2.32,4.82,4.51,9.36,9.13,11.3,37.64,15.84,38.1,35,36.55,42.47-3,14.52-20.19,25.32-39.86,25.11-17.33-.18-29.79,1.42-42.18,10.13L107,131C94.66,139.69,84.75,146.67,68.69,146.67ZM68.52,39.74c-1.78,0-3.65,0-5.66.16-8.93.53-15.43,3.79-18.81,9.44-3.62,6-3.5,14.93.31,23.16l.7,1.49c2.58,5.49,5.25,11.17,3.61,17.58-1,3.78-3.59,7.18-6.13,10.47-1.09,1.42-2.12,2.75-3,4.08-5,7.6-5.75,16.44-2.07,23.66,4.47,8.75,14.64,13.93,28.62,14.59,16.9.79,26.44-5.94,39.64-15.24l1.86-1.32c14.24-10,28.7-10.69,43.5-10.54h.54c18.43,0,34.33-10,37.1-23.32,3-14.68-9.8-29.24-35.23-39.94-5.39-2.26-7.87-7.41-10.28-12.39-2.07-4.3-4-8.36-7.68-10.4-10.11-5.65-18.46-2.47-25.3,1.4C95.39,41,87.43,40.58,77.35,40,74.68,39.9,71.78,39.74,68.52,39.74Z"/><path d="M64.22,144.56a51.25,51.25,0,0,1-11.08-1.28c-14.28-3.16-23.85-10.4-27-20.38-2.59-8.32-.18-17.52,6.43-24.62,1.13-1.2,2.39-2.36,3.73-3.6,2.94-2.69,6-5.48,7.43-8.73,2.45-5.48.87-11.23-.67-16.79l-.43-1.6c-2.51-9.29-1-18.65,4-24.42,4.66-5.43,12.13-7.74,21.6-6.67a121.2,121.2,0,0,1,14.44,2.62c10,2.27,17.13,3.91,32.74-1.67,7.84-2.8,17.15-4.61,26.8,3.2,3.66,3,5,7.76,6.37,12.4,1.43,5,2.91,10.2,7.31,13C190,87.8,187.25,106.41,184.49,113.4,179.16,127,160.71,134.53,141.57,131c-14.27-2.62-28.35-4.36-43.63,2.86l-2.06,1C84.47,140.29,75.49,144.56,64.22,144.56ZM63.91,37.34c-7.08,0-12.71,2.22-16.41,6.53-4.72,5.5-6.16,14.46-3.75,23.4l.43,1.59c1.59,5.75,3.23,11.7.61,17.55-1.55,3.46-4.67,6.33-7.69,9.1-1.32,1.22-2.57,2.37-3.67,3.54-6.33,6.79-8.64,15.58-6.18,23.51,3,9.59,12.26,16.56,26.13,19.62,16.71,3.69,27.33-1.35,42-8.32l2.06-1c15.58-7.37,29.85-5.6,44.32-2.95,18.61,3.4,36.53-3.88,41.67-16.94,5.6-14.23-4.66-31-28.15-46-4.75-3-6.29-8.43-7.78-13.64-1.34-4.68-2.61-9.1-6-11.84h0c-9.21-7.46-18.17-5.71-25.71-3-15.92,5.69-23.62,3.93-33.37,1.71a122.13,122.13,0,0,0-14.32-2.61A38.49,38.49,0,0,0,63.91,37.34Z"/><text class="cls-4" transform="translate(56.68 73.08) scale(1.23 1)">Black<tspan x="0" y="34.73">Friday</tspan></text></g></g></svg>