<svg width="383" height="131" viewBox="0 0 383 131" fill="none" xmlns="http://www.w3.org/2000/svg">
<path d="M108.851 53.265C109.029 52.9039 109.248 52.4915 109.506 52.0577C110.328 50.6714 111.51 49.1305 112.995 48.3045L112.999 48.3023C113.936 47.7698 114.863 47.9389 115.746 48.5529C116.648 49.1795 117.452 50.2442 118.012 51.3567C119.528 54.4518 119.94 59.3364 119.94 63.1323C119.94 66.8591 119.025 70.7185 118.452 72.5338C118.359 72.7878 118.295 73.0448 118.26 73.3043C118.18 73.5752 118.113 73.7783 118.067 73.9137C118.042 73.9844 118.023 74.0367 118.011 74.0705L117.997 74.1072L117.994 74.1151L117.994 74.1161L117.994 74.1162L117.994 74.1163L117.994 74.1164L117.994 74.1165L117.994 74.1165L117.991 74.1229L117.989 74.1298C115.199 81.9034 110.762 86.5665 105.87 88.5046C100.983 90.4408 95.5558 89.6929 90.693 86.4737L90.6928 86.4735C87.0416 84.0598 81.7077 79.7995 77.056 74.2378C72.4021 68.6734 68.4605 61.8418 67.5301 54.2809C66.4611 45.5289 68.0369 40.2356 70.2651 37.4198C72.4918 34.6057 75.3484 34.2541 77.0974 35.2364L77.1003 35.2381C79.3575 36.4859 81.62 38.6398 83.8134 41.2822C86.0024 43.9191 88.0982 47.0124 90.0292 50.1072C91.6727 52.741 93.1911 55.3664 94.5441 57.706C94.7808 58.1153 95.0124 58.5158 95.2388 58.9062C96.7497 61.5113 98.0419 63.6901 99.0233 64.9278L99.0234 64.928C101.305 67.8027 103.529 70.4126 105.722 71.9669C106.823 72.7478 107.947 73.2855 109.094 73.4402C110.255 73.5967 111.403 73.3559 112.525 72.6421C116.042 70.4195 116.803 66.7342 117.066 62.1522C117.142 60.9317 116.959 59.0846 116.536 57.3211C116.118 55.5795 115.439 53.801 114.45 52.8052C113.911 52.2388 113.143 52.1052 112.416 52.1479C111.68 52.1912 110.889 52.4185 110.18 52.686C109.699 52.8677 109.243 53.073 108.851 53.265Z" fill="#F2B319" stroke="#0D0707"/>
<path d="M17.0509 72.56L17.0548 72.576C17.0721 72.6465 17.0903 72.7101 17.1111 72.7828C17.123 72.8241 17.1356 72.8684 17.1495 72.9185C17.1807 73.0319 17.2141 73.1633 17.2343 73.303C17.3147 73.5745 17.3814 73.7781 17.4279 73.9137C17.4522 73.9844 17.471 74.0367 17.4834 74.0705L17.4971 74.1072L17.5002 74.1151L17.5006 74.1161L17.5006 74.1162L17.5006 74.1163L17.5007 74.1164L17.5007 74.1165L17.5007 74.1165L17.5032 74.1229L17.5057 74.1298C20.2958 81.9034 24.7324 86.5665 29.6243 88.5046C34.5113 90.4408 39.9387 89.6929 44.8015 86.4737L44.8017 86.4735C48.4529 84.0598 53.7868 79.7995 58.4385 74.2378C63.0924 68.6734 67.034 61.8419 67.9644 54.2811C69.0335 45.529 67.4576 40.2356 65.2294 37.4198C63.0027 34.6057 60.1461 34.2541 58.3971 35.2364L58.3942 35.2381C56.137 36.4859 53.8745 38.6398 51.6811 41.2822C49.4921 43.9191 47.3963 47.0124 45.4653 50.1072C43.8218 52.7411 42.3034 55.3665 40.9504 57.706C40.7137 58.1153 40.482 58.5159 40.2557 58.9062C38.7448 61.5113 37.4526 63.6901 36.4712 64.9278L36.4711 64.928C34.1899 67.8027 31.9652 70.4126 29.773 71.9669C28.6717 72.7478 27.5474 73.2855 26.4002 73.4402C25.2395 73.5967 24.0915 73.3558 22.9697 72.642L17.0509 72.56ZM17.0509 72.56L17.0459 72.5443C16.4731 70.7334 15.5549 66.8662 15.5549 63.1323C15.5549 59.3364 15.9665 54.4519 17.4829 51.3567L17.0509 72.56Z" fill="#F2B319" stroke="#0D0707"/>
<path d="M205.469 52H198.766V28C198.766 27.5312 198.672 27.0938 198.484 26.6875C198.312 26.2812 198.07 25.9297 197.758 25.6328C197.461 25.3203 197.109 25.0781 196.703 24.9062C196.297 24.7344 195.859 24.6484 195.391 24.6484C194.922 24.6484 194.484 24.7344 194.078 24.9062C193.672 25.0781 193.312 25.3203 193 25.6328C192.703 25.9297 192.469 26.2812 192.297 26.6875C192.125 27.0938 192.039 27.5312 192.039 28V52H185.312V28C185.312 27.5312 185.227 27.0938 185.055 26.6875C184.883 26.2812 184.641 25.9297 184.328 25.6328C184.031 25.3203 183.68 25.0781 183.273 24.9062C182.867 24.7344 182.43 24.6484 181.961 24.6484C181.492 24.6484 181.055 24.7344 180.648 24.9062C180.242 25.0781 179.883 25.3203 179.57 25.6328C179.273 25.9297 179.039 26.2812 178.867 26.6875C178.695 27.0938 178.609 27.5312 178.609 28V52H171.883V28C171.883 26.6094 172.141 25.3047 172.656 24.0859C173.188 22.8516 173.906 21.7812 174.812 20.875C175.734 19.9531 176.805 19.2344 178.023 18.7188C179.258 18.1875 180.57 17.9219 181.961 17.9219C183.211 17.9219 184.414 18.1484 185.57 18.6016C186.727 19.0391 187.766 19.6797 188.688 20.5234C189.609 19.6797 190.641 19.0391 191.781 18.6016C192.938 18.1484 194.141 17.9219 195.391 17.9219C196.781 17.9219 198.086 18.1875 199.305 18.7188C200.539 19.2344 201.609 19.9531 202.516 20.875C203.438 21.7812 204.156 22.8516 204.672 24.0859C205.203 25.3047 205.469 26.6094 205.469 28V52ZM234.836 52H233.289L230.805 48.5547C230.195 49.1016 229.547 49.6172 228.859 50.1016C228.188 50.5703 227.477 50.9844 226.727 51.3438C225.977 51.6875 225.203 51.9609 224.406 52.1641C223.625 52.3672 222.828 52.4688 222.016 52.4688C220.25 52.4688 218.586 52.1719 217.023 51.5781C215.477 50.9844 214.117 50.125 212.945 49C211.789 47.8594 210.875 46.4688 210.203 44.8281C209.531 43.1875 209.195 41.3203 209.195 39.2266C209.195 37.2734 209.531 35.4844 210.203 33.8594C210.875 32.2188 211.789 30.8125 212.945 29.6406C214.117 28.4688 215.477 27.5625 217.023 26.9219C218.586 26.2656 220.25 25.9375 222.016 25.9375C222.828 25.9375 223.633 26.0391 224.43 26.2422C225.227 26.4453 226 26.7266 226.75 27.0859C227.5 27.4453 228.211 27.8672 228.883 28.3516C229.57 28.8359 230.211 29.3594 230.805 29.9219L233.289 26.9453H234.836V52ZM228.391 39.2266C228.391 38.3516 228.219 37.5078 227.875 36.6953C227.547 35.8672 227.094 35.1406 226.516 34.5156C225.938 33.875 225.258 33.3672 224.477 32.9922C223.711 32.6016 222.891 32.4062 222.016 32.4062C221.141 32.4062 220.312 32.5547 219.531 32.8516C218.766 33.1484 218.094 33.5859 217.516 34.1641C216.953 34.7422 216.508 35.4609 216.18 36.3203C215.852 37.1641 215.688 38.1328 215.688 39.2266C215.688 40.3203 215.852 41.2969 216.18 42.1562C216.508 43 216.953 43.7109 217.516 44.2891C218.094 44.8672 218.766 45.3047 219.531 45.6016C220.312 45.8984 221.141 46.0469 222.016 46.0469C222.891 46.0469 223.711 45.8594 224.477 45.4844C225.258 45.0938 225.938 44.5859 226.516 43.9609C227.094 43.3203 227.547 42.5938 227.875 41.7812C228.219 40.9531 228.391 40.1016 228.391 39.2266ZM257.594 39.2266C257.594 38.3516 257.422 37.5078 257.078 36.6953C256.75 35.8672 256.297 35.1406 255.719 34.5156C255.141 33.875 254.461 33.3672 253.68 32.9922C252.914 32.6016 252.094 32.4062 251.219 32.4062C250.344 32.4062 249.516 32.5547 248.734 32.8516C247.969 33.1484 247.297 33.5859 246.719 34.1641C246.156 34.7422 245.711 35.4609 245.383 36.3203C245.055 37.1641 244.891 38.1328 244.891 39.2266C244.891 40.2734 245.055 41.2188 245.383 42.0625C245.711 42.8906 246.156 43.6016 246.719 44.1953C247.297 44.7891 247.969 45.25 248.734 45.5781C249.516 45.8906 250.344 46.0469 251.219 46.0469C252.094 46.0469 252.914 45.8594 253.68 45.4844C254.461 45.0938 255.141 44.5859 255.719 43.9609C256.297 43.3203 256.75 42.5938 257.078 41.7812C257.422 40.9531 257.594 40.1016 257.594 39.2266ZM264.039 48.8359C264.039 50.6016 263.703 52.2578 263.031 53.8047C262.359 55.3516 261.438 56.7031 260.266 57.8594C259.109 59.0156 257.75 59.9297 256.188 60.6016C254.641 61.2734 252.984 61.6094 251.219 61.6094L248.008 61.5625V55.1641L251.172 55.2109C252.172 55.2109 253.023 55.0781 253.727 54.8125C254.43 54.5625 255.023 54.2109 255.508 53.7578C255.992 53.3203 256.375 52.8125 256.656 52.2344C256.953 51.6562 257.188 51.0469 257.359 50.4062C257.109 50.8125 256.75 51.1484 256.281 51.4141C255.812 51.6641 255.289 51.8672 254.711 52.0234C254.148 52.1953 253.555 52.3125 252.93 52.375C252.32 52.4375 251.75 52.4688 251.219 52.4688C249.453 52.4688 247.789 52.1641 246.227 51.5547C244.68 50.9453 243.32 50.0781 242.148 48.9531C240.992 47.8125 240.078 46.4219 239.406 44.7812C238.734 43.1406 238.398 41.2891 238.398 39.2266C238.398 37.3359 238.734 35.5781 239.406 33.9531C240.078 32.3281 240.992 30.9219 242.148 29.7344C243.32 28.5469 244.68 27.6172 246.227 26.9453C247.789 26.2734 249.453 25.9375 251.219 25.9375C252.031 25.9375 252.836 26.0391 253.633 26.2422C254.43 26.4453 255.203 26.7266 255.953 27.0859C256.703 27.4453 257.414 27.8672 258.086 28.3516C258.773 28.8359 259.414 29.3594 260.008 29.9219L262.492 26.9453H264.039V48.8359ZM293.242 52H291.695L289.211 48.5547C288.602 49.1016 287.953 49.6172 287.266 50.1016C286.594 50.5703 285.883 50.9844 285.133 51.3438C284.383 51.6875 283.609 51.9609 282.812 52.1641C282.031 52.3672 281.234 52.4688 280.422 52.4688C278.656 52.4688 276.992 52.1719 275.43 51.5781C273.883 50.9844 272.523 50.125 271.352 49C270.195 47.8594 269.281 46.4688 268.609 44.8281C267.938 43.1875 267.602 41.3203 267.602 39.2266C267.602 37.2734 267.938 35.4844 268.609 33.8594C269.281 32.2188 270.195 30.8125 271.352 29.6406C272.523 28.4688 273.883 27.5625 275.43 26.9219C276.992 26.2656 278.656 25.9375 280.422 25.9375C281.234 25.9375 282.039 26.0391 282.836 26.2422C283.633 26.4453 284.406 26.7266 285.156 27.0859C285.906 27.4453 286.617 27.8672 287.289 28.3516C287.977 28.8359 288.617 29.3594 289.211 29.9219L291.695 26.9453H293.242V52ZM286.797 39.2266C286.797 38.3516 286.625 37.5078 286.281 36.6953C285.953 35.8672 285.5 35.1406 284.922 34.5156C284.344 33.875 283.664 33.3672 282.883 32.9922C282.117 32.6016 281.297 32.4062 280.422 32.4062C279.547 32.4062 278.719 32.5547 277.938 32.8516C277.172 33.1484 276.5 33.5859 275.922 34.1641C275.359 34.7422 274.914 35.4609 274.586 36.3203C274.258 37.1641 274.094 38.1328 274.094 39.2266C274.094 40.3203 274.258 41.2969 274.586 42.1562C274.914 43 275.359 43.7109 275.922 44.2891C276.5 44.8672 277.172 45.3047 277.938 45.6016C278.719 45.8984 279.547 46.0469 280.422 46.0469C281.297 46.0469 282.117 45.8594 282.883 45.4844C283.664 45.0938 284.344 44.5859 284.922 43.9609C285.5 43.3203 285.953 42.5938 286.281 41.7812C286.625 40.9531 286.797 40.1016 286.797 39.2266ZM317.734 52H296.805L307.375 33.3203H296.805V26.9453H317.734L307.164 45.625H317.734V52ZM328.844 20.0781C328.844 20.6719 328.727 21.2266 328.492 21.7422C328.273 22.2578 327.969 22.7109 327.578 23.1016C327.188 23.4766 326.727 23.7812 326.195 24.0156C325.68 24.2344 325.125 24.3438 324.531 24.3438C323.938 24.3438 323.375 24.2344 322.844 24.0156C322.328 23.7812 321.875 23.4766 321.484 23.1016C321.109 22.7109 320.805 22.2578 320.57 21.7422C320.352 21.2266 320.242 20.6719 320.242 20.0781C320.242 19.5 320.352 18.9531 320.57 18.4375C320.805 17.9062 321.109 17.4531 321.484 17.0781C321.875 16.6875 322.328 16.3828 322.844 16.1641C323.375 15.9297 323.938 15.8125 324.531 15.8125C325.125 15.8125 325.68 15.9297 326.195 16.1641C326.727 16.3828 327.188 16.6875 327.578 17.0781C327.969 17.4531 328.273 17.9062 328.492 18.4375C328.727 18.9531 328.844 19.5 328.844 20.0781ZM327.742 52H321.297V26.8984H327.742V52ZM339.039 52H332.641V26.8984H334.188L336.297 29.3359C337.328 28.3984 338.492 27.6797 339.789 27.1797C341.102 26.6641 342.469 26.4062 343.891 26.4062C345.422 26.4062 346.867 26.7031 348.227 27.2969C349.586 27.875 350.773 28.6797 351.789 29.7109C352.805 30.7266 353.602 31.9219 354.18 33.2969C354.773 34.6562 355.07 36.1094 355.07 37.6562V52H348.672V37.6562C348.672 37 348.547 36.3828 348.297 35.8047C348.047 35.2109 347.703 34.6953 347.266 34.2578C346.828 33.8203 346.32 33.4766 345.742 33.2266C345.164 32.9766 344.547 32.8516 343.891 32.8516C343.219 32.8516 342.586 32.9766 341.992 33.2266C341.398 33.4766 340.883 33.8203 340.445 34.2578C340.008 34.6953 339.664 35.2109 339.414 35.8047C339.164 36.3828 339.039 37 339.039 37.6562V52ZM369.625 45.8594C369.875 45.9375 370.125 45.9922 370.375 46.0234C370.625 46.0391 370.875 46.0469 371.125 46.0469C371.75 46.0469 372.352 45.9609 372.93 45.7891C373.508 45.6172 374.047 45.375 374.547 45.0625C375.062 44.7344 375.516 44.3438 375.906 43.8906C376.312 43.4219 376.641 42.9062 376.891 42.3438L381.578 47.0547C380.984 47.8984 380.297 48.6562 379.516 49.3281C378.75 50 377.914 50.5703 377.008 51.0391C376.117 51.5078 375.172 51.8594 374.172 52.0938C373.188 52.3438 372.172 52.4688 371.125 52.4688C369.359 52.4688 367.695 52.1406 366.133 51.4844C364.586 50.8281 363.227 49.9141 362.055 48.7422C360.898 47.5703 359.984 46.1797 359.312 44.5703C358.641 42.9453 358.305 41.1641 358.305 39.2266C358.305 37.2422 358.641 35.4297 359.312 33.7891C359.984 32.1484 360.898 30.75 362.055 29.5938C363.227 28.4375 364.586 27.5391 366.133 26.8984C367.695 26.2578 369.359 25.9375 371.125 25.9375C372.172 25.9375 373.195 26.0625 374.195 26.3125C375.195 26.5625 376.141 26.9219 377.031 27.3906C377.938 27.8594 378.781 28.4375 379.562 29.125C380.344 29.7969 381.031 30.5547 381.625 31.3984L369.625 45.8594ZM372.906 32.6641C372.609 32.5547 372.312 32.4844 372.016 32.4531C371.734 32.4219 371.438 32.4062 371.125 32.4062C370.25 32.4062 369.422 32.5703 368.641 32.8984C367.875 33.2109 367.203 33.6641 366.625 34.2578C366.062 34.8516 365.617 35.5703 365.289 36.4141C364.961 37.2422 364.797 38.1797 364.797 39.2266C364.797 39.4609 364.805 39.7266 364.82 40.0234C364.852 40.3203 364.891 40.625 364.938 40.9375C365 41.2344 365.07 41.5234 365.148 41.8047C365.227 42.0859 365.328 42.3359 365.453 42.5547L372.906 32.6641ZM195.648 112H172.117V78.3906H178.844V105.273H195.648V112ZM216.18 109.07C215.664 109.539 215.109 109.984 214.516 110.406C213.938 110.812 213.328 111.172 212.688 111.484C212.047 111.781 211.383 112.016 210.695 112.188C210.023 112.375 209.336 112.469 208.633 112.469C207.086 112.469 205.633 112.195 204.273 111.648C202.914 111.102 201.719 110.328 200.688 109.328C199.672 108.312 198.867 107.086 198.273 105.648C197.695 104.195 197.406 102.57 197.406 100.773V86.8984H203.781V100.773C203.781 101.617 203.906 102.375 204.156 103.047C204.422 103.703 204.773 104.258 205.211 104.711C205.648 105.164 206.156 105.508 206.734 105.742C207.328 105.977 207.961 106.094 208.633 106.094C209.289 106.094 209.906 105.945 210.484 105.648C211.078 105.336 211.594 104.93 212.031 104.43C212.469 103.93 212.812 103.367 213.062 102.742C213.312 102.102 213.438 101.445 213.438 100.773V86.8984H219.836V112H218.289L216.18 109.07ZM232.281 80.0781C232.281 80.6719 232.164 81.2266 231.93 81.7422C231.711 82.2578 231.406 82.7109 231.016 83.1016C230.625 83.4766 230.164 83.7812 229.633 84.0156C229.117 84.2344 228.562 84.3438 227.969 84.3438C227.375 84.3438 226.812 84.2344 226.281 84.0156C225.766 83.7812 225.312 83.4766 224.922 83.1016C224.547 82.7109 224.242 82.2578 224.008 81.7422C223.789 81.2266 223.68 80.6719 223.68 80.0781C223.68 79.5 223.789 78.9531 224.008 78.4375C224.242 77.9062 224.547 77.4531 224.922 77.0781C225.312 76.6875 225.766 76.3828 226.281 76.1641C226.812 75.9297 227.375 75.8125 227.969 75.8125C228.562 75.8125 229.117 75.9297 229.633 76.1641C230.164 76.3828 230.625 76.6875 231.016 77.0781C231.406 77.4531 231.711 77.9062 231.93 78.4375C232.164 78.9531 232.281 79.5 232.281 80.0781ZM231.18 112H224.734V86.8984H231.18V112ZM255.672 112H234.742L245.312 93.3203H234.742V86.9453H255.672L245.102 105.625H255.672V112Z" fill="white"/>
<line x1="158.5" y1="15" x2="158.5" y2="112" stroke="white"/>
<path d="M132 65.5C132 98.7046 103.783 126 68.5 126C33.2165 126 5 98.7046 5 65.5C5 32.2954 33.2165 5 68.5 5C103.783 5 132 32.2954 132 65.5Z" stroke="black" stroke-width="10"/>
</svg>
