<svg width="420" height="120" viewBox="0 0 420 120" fill="none" xmlns="http://www.w3.org/2000/svg">
<path d="M179.071 81.4888C180.076 78.7842 181.682 73.0258 181.682 67.442C181.682 61.8582 180.979 54.5295 178.268 49.8182C176.26 46.4155 172.395 43.1002 168.429 45.0196C162.906 47.637 159.894 54.6167 159.894 54.6167C159.894 54.6167 168.027 50.3417 170.738 52.7846C173.8 55.402 175.256 62.5562 175.005 65.9588C174.553 72.6768 173.248 77.7372 167.575 80.7908C160.497 84.6297 153.318 78.0862 145.436 69.6232C138.859 62.5562 123.498 33.4158 107.383 25.8253C100.455 22.5099 85.8961 28.6172 89.6111 54.5295C92.8742 77.1264 117.222 95.1865 129.923 102.341C147.093 112.025 168.529 106.965 178.268 83.8444C178.268 83.8444 178.469 83.4082 178.77 82.5357C178.82 82.1867 178.921 81.8378 179.071 81.4888Z" fill="#F2B319"/>
<path d="M2.61052 81.4888C1.60647 78.7842 0 73.0258 0 67.442C0 61.8582 0.702825 54.5295 3.41375 49.8182C5.42184 46.4155 9.28742 43.1002 13.2534 45.0196C18.7756 47.637 21.7878 54.6167 21.7878 54.6167C21.7878 54.6167 13.655 50.3417 10.9441 52.7846C7.88175 55.402 6.42588 62.5562 6.67689 65.9588C7.12872 72.6768 8.43398 77.7372 14.1068 80.7908C21.1854 84.6297 28.3643 78.0862 36.246 69.6232C42.8225 62.5562 58.1844 33.4158 74.2993 25.8253C81.2273 22.5099 95.7859 28.6172 92.0709 54.5295C88.8078 77.1264 64.4597 95.1865 51.7585 102.341C34.5894 112.025 13.153 106.965 3.41375 83.8444C3.41375 83.8444 3.21294 83.4082 2.91173 82.5357C2.86152 82.1867 2.71092 81.8378 2.61052 81.4888Z" fill="#F2B319"/>
<path d="M242.469 47H235.766V23C235.766 22.5312 235.672 22.0938 235.484 21.6875C235.312 21.2812 235.07 20.9297 234.758 20.6328C234.461 20.3203 234.109 20.0781 233.703 19.9062C233.297 19.7344 232.859 19.6484 232.391 19.6484C231.922 19.6484 231.484 19.7344 231.078 19.9062C230.672 20.0781 230.312 20.3203 230 20.6328C229.703 20.9297 229.469 21.2812 229.297 21.6875C229.125 22.0938 229.039 22.5312 229.039 23V47H222.312V23C222.312 22.5312 222.227 22.0938 222.055 21.6875C221.883 21.2812 221.641 20.9297 221.328 20.6328C221.031 20.3203 220.68 20.0781 220.273 19.9062C219.867 19.7344 219.43 19.6484 218.961 19.6484C218.492 19.6484 218.055 19.7344 217.648 19.9062C217.242 20.0781 216.883 20.3203 216.57 20.6328C216.273 20.9297 216.039 21.2812 215.867 21.6875C215.695 22.0938 215.609 22.5312 215.609 23V47H208.883V23C208.883 21.6094 209.141 20.3047 209.656 19.0859C210.188 17.8516 210.906 16.7812 211.812 15.875C212.734 14.9531 213.805 14.2344 215.023 13.7188C216.258 13.1875 217.57 12.9219 218.961 12.9219C220.211 12.9219 221.414 13.1484 222.57 13.6016C223.727 14.0391 224.766 14.6797 225.688 15.5234C226.609 14.6797 227.641 14.0391 228.781 13.6016C229.938 13.1484 231.141 12.9219 232.391 12.9219C233.781 12.9219 235.086 13.1875 236.305 13.7188C237.539 14.2344 238.609 14.9531 239.516 15.875C240.438 16.7812 241.156 17.8516 241.672 19.0859C242.203 20.3047 242.469 21.6094 242.469 23V47ZM271.836 47H270.289L267.805 43.5547C267.195 44.1016 266.547 44.6172 265.859 45.1016C265.188 45.5703 264.477 45.9844 263.727 46.3438C262.977 46.6875 262.203 46.9609 261.406 47.1641C260.625 47.3672 259.828 47.4688 259.016 47.4688C257.25 47.4688 255.586 47.1719 254.023 46.5781C252.477 45.9844 251.117 45.125 249.945 44C248.789 42.8594 247.875 41.4688 247.203 39.8281C246.531 38.1875 246.195 36.3203 246.195 34.2266C246.195 32.2734 246.531 30.4844 247.203 28.8594C247.875 27.2188 248.789 25.8125 249.945 24.6406C251.117 23.4688 252.477 22.5625 254.023 21.9219C255.586 21.2656 257.25 20.9375 259.016 20.9375C259.828 20.9375 260.633 21.0391 261.43 21.2422C262.227 21.4453 263 21.7266 263.75 22.0859C264.5 22.4453 265.211 22.8672 265.883 23.3516C266.57 23.8359 267.211 24.3594 267.805 24.9219L270.289 21.9453H271.836V47ZM265.391 34.2266C265.391 33.3516 265.219 32.5078 264.875 31.6953C264.547 30.8672 264.094 30.1406 263.516 29.5156C262.938 28.875 262.258 28.3672 261.477 27.9922C260.711 27.6016 259.891 27.4062 259.016 27.4062C258.141 27.4062 257.312 27.5547 256.531 27.8516C255.766 28.1484 255.094 28.5859 254.516 29.1641C253.953 29.7422 253.508 30.4609 253.18 31.3203C252.852 32.1641 252.688 33.1328 252.688 34.2266C252.688 35.3203 252.852 36.2969 253.18 37.1562C253.508 38 253.953 38.7109 254.516 39.2891C255.094 39.8672 255.766 40.3047 256.531 40.6016C257.312 40.8984 258.141 41.0469 259.016 41.0469C259.891 41.0469 260.711 40.8594 261.477 40.4844C262.258 40.0938 262.938 39.5859 263.516 38.9609C264.094 38.3203 264.547 37.5938 264.875 36.7812C265.219 35.9531 265.391 35.1016 265.391 34.2266ZM294.594 34.2266C294.594 33.3516 294.422 32.5078 294.078 31.6953C293.75 30.8672 293.297 30.1406 292.719 29.5156C292.141 28.875 291.461 28.3672 290.68 27.9922C289.914 27.6016 289.094 27.4062 288.219 27.4062C287.344 27.4062 286.516 27.5547 285.734 27.8516C284.969 28.1484 284.297 28.5859 283.719 29.1641C283.156 29.7422 282.711 30.4609 282.383 31.3203C282.055 32.1641 281.891 33.1328 281.891 34.2266C281.891 35.2734 282.055 36.2188 282.383 37.0625C282.711 37.8906 283.156 38.6016 283.719 39.1953C284.297 39.7891 284.969 40.25 285.734 40.5781C286.516 40.8906 287.344 41.0469 288.219 41.0469C289.094 41.0469 289.914 40.8594 290.68 40.4844C291.461 40.0938 292.141 39.5859 292.719 38.9609C293.297 38.3203 293.75 37.5938 294.078 36.7812C294.422 35.9531 294.594 35.1016 294.594 34.2266ZM301.039 43.8359C301.039 45.6016 300.703 47.2578 300.031 48.8047C299.359 50.3516 298.438 51.7031 297.266 52.8594C296.109 54.0156 294.75 54.9297 293.188 55.6016C291.641 56.2734 289.984 56.6094 288.219 56.6094L285.008 56.5625V50.1641L288.172 50.2109C289.172 50.2109 290.023 50.0781 290.727 49.8125C291.43 49.5625 292.023 49.2109 292.508 48.7578C292.992 48.3203 293.375 47.8125 293.656 47.2344C293.953 46.6562 294.188 46.0469 294.359 45.4062C294.109 45.8125 293.75 46.1484 293.281 46.4141C292.812 46.6641 292.289 46.8672 291.711 47.0234C291.148 47.1953 290.555 47.3125 289.93 47.375C289.32 47.4375 288.75 47.4688 288.219 47.4688C286.453 47.4688 284.789 47.1641 283.227 46.5547C281.68 45.9453 280.32 45.0781 279.148 43.9531C277.992 42.8125 277.078 41.4219 276.406 39.7812C275.734 38.1406 275.398 36.2891 275.398 34.2266C275.398 32.3359 275.734 30.5781 276.406 28.9531C277.078 27.3281 277.992 25.9219 279.148 24.7344C280.32 23.5469 281.68 22.6172 283.227 21.9453C284.789 21.2734 286.453 20.9375 288.219 20.9375C289.031 20.9375 289.836 21.0391 290.633 21.2422C291.43 21.4453 292.203 21.7266 292.953 22.0859C293.703 22.4453 294.414 22.8672 295.086 23.3516C295.773 23.8359 296.414 24.3594 297.008 24.9219L299.492 21.9453H301.039V43.8359ZM330.242 47H328.695L326.211 43.5547C325.602 44.1016 324.953 44.6172 324.266 45.1016C323.594 45.5703 322.883 45.9844 322.133 46.3438C321.383 46.6875 320.609 46.9609 319.812 47.1641C319.031 47.3672 318.234 47.4688 317.422 47.4688C315.656 47.4688 313.992 47.1719 312.43 46.5781C310.883 45.9844 309.523 45.125 308.352 44C307.195 42.8594 306.281 41.4688 305.609 39.8281C304.938 38.1875 304.602 36.3203 304.602 34.2266C304.602 32.2734 304.938 30.4844 305.609 28.8594C306.281 27.2188 307.195 25.8125 308.352 24.6406C309.523 23.4688 310.883 22.5625 312.43 21.9219C313.992 21.2656 315.656 20.9375 317.422 20.9375C318.234 20.9375 319.039 21.0391 319.836 21.2422C320.633 21.4453 321.406 21.7266 322.156 22.0859C322.906 22.4453 323.617 22.8672 324.289 23.3516C324.977 23.8359 325.617 24.3594 326.211 24.9219L328.695 21.9453H330.242V47ZM323.797 34.2266C323.797 33.3516 323.625 32.5078 323.281 31.6953C322.953 30.8672 322.5 30.1406 321.922 29.5156C321.344 28.875 320.664 28.3672 319.883 27.9922C319.117 27.6016 318.297 27.4062 317.422 27.4062C316.547 27.4062 315.719 27.5547 314.938 27.8516C314.172 28.1484 313.5 28.5859 312.922 29.1641C312.359 29.7422 311.914 30.4609 311.586 31.3203C311.258 32.1641 311.094 33.1328 311.094 34.2266C311.094 35.3203 311.258 36.2969 311.586 37.1562C311.914 38 312.359 38.7109 312.922 39.2891C313.5 39.8672 314.172 40.3047 314.938 40.6016C315.719 40.8984 316.547 41.0469 317.422 41.0469C318.297 41.0469 319.117 40.8594 319.883 40.4844C320.664 40.0938 321.344 39.5859 321.922 38.9609C322.5 38.3203 322.953 37.5938 323.281 36.7812C323.625 35.9531 323.797 35.1016 323.797 34.2266ZM354.734 47H333.805L344.375 28.3203H333.805V21.9453H354.734L344.164 40.625H354.734V47ZM365.844 15.0781C365.844 15.6719 365.727 16.2266 365.492 16.7422C365.273 17.2578 364.969 17.7109 364.578 18.1016C364.188 18.4766 363.727 18.7812 363.195 19.0156C362.68 19.2344 362.125 19.3438 361.531 19.3438C360.938 19.3438 360.375 19.2344 359.844 19.0156C359.328 18.7812 358.875 18.4766 358.484 18.1016C358.109 17.7109 357.805 17.2578 357.57 16.7422C357.352 16.2266 357.242 15.6719 357.242 15.0781C357.242 14.5 357.352 13.9531 357.57 13.4375C357.805 12.9062 358.109 12.4531 358.484 12.0781C358.875 11.6875 359.328 11.3828 359.844 11.1641C360.375 10.9297 360.938 10.8125 361.531 10.8125C362.125 10.8125 362.68 10.9297 363.195 11.1641C363.727 11.3828 364.188 11.6875 364.578 12.0781C364.969 12.4531 365.273 12.9062 365.492 13.4375C365.727 13.9531 365.844 14.5 365.844 15.0781ZM364.742 47H358.297V21.8984H364.742V47ZM376.039 47H369.641V21.8984H371.188L373.297 24.3359C374.328 23.3984 375.492 22.6797 376.789 22.1797C378.102 21.6641 379.469 21.4062 380.891 21.4062C382.422 21.4062 383.867 21.7031 385.227 22.2969C386.586 22.875 387.773 23.6797 388.789 24.7109C389.805 25.7266 390.602 26.9219 391.18 28.2969C391.773 29.6562 392.07 31.1094 392.07 32.6562V47H385.672V32.6562C385.672 32 385.547 31.3828 385.297 30.8047C385.047 30.2109 384.703 29.6953 384.266 29.2578C383.828 28.8203 383.32 28.4766 382.742 28.2266C382.164 27.9766 381.547 27.8516 380.891 27.8516C380.219 27.8516 379.586 27.9766 378.992 28.2266C378.398 28.4766 377.883 28.8203 377.445 29.2578C377.008 29.6953 376.664 30.2109 376.414 30.8047C376.164 31.3828 376.039 32 376.039 32.6562V47ZM406.625 40.8594C406.875 40.9375 407.125 40.9922 407.375 41.0234C407.625 41.0391 407.875 41.0469 408.125 41.0469C408.75 41.0469 409.352 40.9609 409.93 40.7891C410.508 40.6172 411.047 40.375 411.547 40.0625C412.062 39.7344 412.516 39.3438 412.906 38.8906C413.312 38.4219 413.641 37.9062 413.891 37.3438L418.578 42.0547C417.984 42.8984 417.297 43.6562 416.516 44.3281C415.75 45 414.914 45.5703 414.008 46.0391C413.117 46.5078 412.172 46.8594 411.172 47.0938C410.188 47.3438 409.172 47.4688 408.125 47.4688C406.359 47.4688 404.695 47.1406 403.133 46.4844C401.586 45.8281 400.227 44.9141 399.055 43.7422C397.898 42.5703 396.984 41.1797 396.312 39.5703C395.641 37.9453 395.305 36.1641 395.305 34.2266C395.305 32.2422 395.641 30.4297 396.312 28.7891C396.984 27.1484 397.898 25.75 399.055 24.5938C400.227 23.4375 401.586 22.5391 403.133 21.8984C404.695 21.2578 406.359 20.9375 408.125 20.9375C409.172 20.9375 410.195 21.0625 411.195 21.3125C412.195 21.5625 413.141 21.9219 414.031 22.3906C414.938 22.8594 415.781 23.4375 416.562 24.125C417.344 24.7969 418.031 25.5547 418.625 26.3984L406.625 40.8594ZM409.906 27.6641C409.609 27.5547 409.312 27.4844 409.016 27.4531C408.734 27.4219 408.438 27.4062 408.125 27.4062C407.25 27.4062 406.422 27.5703 405.641 27.8984C404.875 28.2109 404.203 28.6641 403.625 29.2578C403.062 29.8516 402.617 30.5703 402.289 31.4141C401.961 32.2422 401.797 33.1797 401.797 34.2266C401.797 34.4609 401.805 34.7266 401.82 35.0234C401.852 35.3203 401.891 35.625 401.938 35.9375C402 36.2344 402.07 36.5234 402.148 36.8047C402.227 37.0859 402.328 37.3359 402.453 37.5547L409.906 27.6641ZM232.648 107H209.117V73.3906H215.844V100.273H232.648V107ZM253.18 104.07C252.664 104.539 252.109 104.984 251.516 105.406C250.938 105.812 250.328 106.172 249.688 106.484C249.047 106.781 248.383 107.016 247.695 107.188C247.023 107.375 246.336 107.469 245.633 107.469C244.086 107.469 242.633 107.195 241.273 106.648C239.914 106.102 238.719 105.328 237.688 104.328C236.672 103.312 235.867 102.086 235.273 100.648C234.695 99.1953 234.406 97.5703 234.406 95.7734V81.8984H240.781V95.7734C240.781 96.6172 240.906 97.375 241.156 98.0469C241.422 98.7031 241.773 99.2578 242.211 99.7109C242.648 100.164 243.156 100.508 243.734 100.742C244.328 100.977 244.961 101.094 245.633 101.094C246.289 101.094 246.906 100.945 247.484 100.648C248.078 100.336 248.594 99.9297 249.031 99.4297C249.469 98.9297 249.812 98.3672 250.062 97.7422C250.312 97.1016 250.438 96.4453 250.438 95.7734V81.8984H256.836V107H255.289L253.18 104.07ZM269.281 75.0781C269.281 75.6719 269.164 76.2266 268.93 76.7422C268.711 77.2578 268.406 77.7109 268.016 78.1016C267.625 78.4766 267.164 78.7812 266.633 79.0156C266.117 79.2344 265.562 79.3438 264.969 79.3438C264.375 79.3438 263.812 79.2344 263.281 79.0156C262.766 78.7812 262.312 78.4766 261.922 78.1016C261.547 77.7109 261.242 77.2578 261.008 76.7422C260.789 76.2266 260.68 75.6719 260.68 75.0781C260.68 74.5 260.789 73.9531 261.008 73.4375C261.242 72.9062 261.547 72.4531 261.922 72.0781C262.312 71.6875 262.766 71.3828 263.281 71.1641C263.812 70.9297 264.375 70.8125 264.969 70.8125C265.562 70.8125 266.117 70.9297 266.633 71.1641C267.164 71.3828 267.625 71.6875 268.016 72.0781C268.406 72.4531 268.711 72.9062 268.93 73.4375C269.164 73.9531 269.281 74.5 269.281 75.0781ZM268.18 107H261.734V81.8984H268.18V107ZM292.672 107H271.742L282.312 88.3203H271.742V81.9453H292.672L282.102 100.625H292.672V107Z" fill="white"/>
<line x1="195.5" y1="10" x2="195.5" y2="107" stroke="white"/>
</svg>
