<svg width="420" height="131" viewBox="0 0 420 131" fill="none" xmlns="http://www.w3.org/2000/svg">
<path d="M145.851 53.265C146.029 52.9039 146.248 52.4915 146.506 52.0577C147.328 50.6714 148.51 49.1305 149.995 48.3045L149.999 48.3023C150.936 47.7698 151.863 47.9389 152.746 48.5529C153.648 49.1795 154.452 50.2442 155.012 51.3567C156.528 54.4518 156.94 59.3364 156.94 63.1323C156.94 66.8591 156.025 70.7185 155.452 72.5338C155.359 72.7878 155.295 73.0448 155.26 73.3043C155.18 73.5752 155.113 73.7783 155.067 73.9137C155.042 73.9844 155.023 74.0367 155.011 74.0705L154.997 74.1072L154.994 74.1151L154.994 74.1161L154.994 74.1162L154.994 74.1163L154.994 74.1164L154.994 74.1165L154.994 74.1165L154.991 74.1229L154.989 74.1298C152.199 81.9034 147.762 86.5665 142.87 88.5046C137.983 90.4408 132.556 89.6929 127.693 86.4737L127.693 86.4735C124.042 84.0598 118.708 79.7995 114.056 74.2378C109.402 68.6734 105.46 61.8418 104.53 54.2809C103.461 45.5289 105.037 40.2356 107.265 37.4198C109.492 34.6057 112.348 34.2541 114.097 35.2364L114.1 35.2381C116.357 36.4859 118.62 38.6398 120.813 41.2822C123.002 43.9191 125.098 47.0124 127.029 50.1072C128.673 52.741 130.191 55.3664 131.544 57.706C131.781 58.1153 132.012 58.5158 132.239 58.9062C133.75 61.5113 135.042 63.6901 136.023 64.9278L136.023 64.928C138.305 67.8027 140.529 70.4126 142.722 71.9669C143.823 72.7478 144.947 73.2855 146.094 73.4402C147.255 73.5967 148.403 73.3559 149.525 72.6421C153.042 70.4195 153.803 66.7342 154.066 62.1522C154.142 60.9317 153.959 59.0846 153.536 57.3211C153.118 55.5795 152.439 53.801 151.45 52.8052C150.911 52.2388 150.143 52.1052 149.416 52.1479C148.68 52.1912 147.889 52.4185 147.18 52.686C146.699 52.8677 146.243 53.073 145.851 53.265Z" fill="#F2B319" stroke="#0D0707"/>
<path d="M54.0509 72.56L54.0548 72.576C54.0721 72.6465 54.0903 72.7101 54.1111 72.7828C54.123 72.8241 54.1356 72.8684 54.1495 72.9185C54.1807 73.0319 54.2141 73.1633 54.2343 73.303C54.3147 73.5745 54.3814 73.7781 54.4279 73.9137C54.4522 73.9844 54.471 74.0367 54.4834 74.0705L54.4971 74.1072L54.5002 74.1151L54.5006 74.1161L54.5006 74.1162L54.5006 74.1163L54.5007 74.1164L54.5007 74.1165L54.5007 74.1165L54.5032 74.1229L54.5057 74.1298C57.2958 81.9034 61.7324 86.5665 66.6243 88.5046C71.5113 90.4408 76.9387 89.6929 81.8015 86.4737L81.8017 86.4735C85.4529 84.0598 90.7868 79.7995 95.4385 74.2378C100.092 68.6734 104.034 61.8419 104.964 54.2811C106.033 45.529 104.458 40.2356 102.229 37.4198C100.003 34.6057 97.1461 34.2541 95.3971 35.2364L95.3942 35.2381C93.137 36.4859 90.8745 38.6398 88.6811 41.2822C86.4921 43.9191 84.3963 47.0124 82.4653 50.1072C80.8218 52.7411 79.3034 55.3665 77.9504 57.706C77.7137 58.1153 77.482 58.5159 77.2557 58.9062C75.7448 61.5113 74.4526 63.6901 73.4712 64.9278L73.4711 64.928C71.1899 67.8027 68.9652 70.4126 66.773 71.9669C65.6717 72.7478 64.5474 73.2855 63.4002 73.4402C62.2395 73.5967 61.0915 73.3558 59.9697 72.642L54.0509 72.56ZM54.0509 72.56L54.0459 72.5443C53.4731 70.7334 52.5549 66.8662 52.5549 63.1323C52.5549 59.3364 52.9665 54.4519 54.4829 51.3567L54.0509 72.56Z" fill="#F2B319" stroke="#0D0707"/>
<path d="M242.469 52H235.766V28C235.766 27.5312 235.672 27.0938 235.484 26.6875C235.312 26.2812 235.07 25.9297 234.758 25.6328C234.461 25.3203 234.109 25.0781 233.703 24.9062C233.297 24.7344 232.859 24.6484 232.391 24.6484C231.922 24.6484 231.484 24.7344 231.078 24.9062C230.672 25.0781 230.312 25.3203 230 25.6328C229.703 25.9297 229.469 26.2812 229.297 26.6875C229.125 27.0938 229.039 27.5312 229.039 28V52H222.312V28C222.312 27.5312 222.227 27.0938 222.055 26.6875C221.883 26.2812 221.641 25.9297 221.328 25.6328C221.031 25.3203 220.68 25.0781 220.273 24.9062C219.867 24.7344 219.43 24.6484 218.961 24.6484C218.492 24.6484 218.055 24.7344 217.648 24.9062C217.242 25.0781 216.883 25.3203 216.57 25.6328C216.273 25.9297 216.039 26.2812 215.867 26.6875C215.695 27.0938 215.609 27.5312 215.609 28V52H208.883V28C208.883 26.6094 209.141 25.3047 209.656 24.0859C210.188 22.8516 210.906 21.7812 211.812 20.875C212.734 19.9531 213.805 19.2344 215.023 18.7188C216.258 18.1875 217.57 17.9219 218.961 17.9219C220.211 17.9219 221.414 18.1484 222.57 18.6016C223.727 19.0391 224.766 19.6797 225.688 20.5234C226.609 19.6797 227.641 19.0391 228.781 18.6016C229.938 18.1484 231.141 17.9219 232.391 17.9219C233.781 17.9219 235.086 18.1875 236.305 18.7188C237.539 19.2344 238.609 19.9531 239.516 20.875C240.438 21.7812 241.156 22.8516 241.672 24.0859C242.203 25.3047 242.469 26.6094 242.469 28V52ZM271.836 52H270.289L267.805 48.5547C267.195 49.1016 266.547 49.6172 265.859 50.1016C265.188 50.5703 264.477 50.9844 263.727 51.3438C262.977 51.6875 262.203 51.9609 261.406 52.1641C260.625 52.3672 259.828 52.4688 259.016 52.4688C257.25 52.4688 255.586 52.1719 254.023 51.5781C252.477 50.9844 251.117 50.125 249.945 49C248.789 47.8594 247.875 46.4688 247.203 44.8281C246.531 43.1875 246.195 41.3203 246.195 39.2266C246.195 37.2734 246.531 35.4844 247.203 33.8594C247.875 32.2188 248.789 30.8125 249.945 29.6406C251.117 28.4688 252.477 27.5625 254.023 26.9219C255.586 26.2656 257.25 25.9375 259.016 25.9375C259.828 25.9375 260.633 26.0391 261.43 26.2422C262.227 26.4453 263 26.7266 263.75 27.0859C264.5 27.4453 265.211 27.8672 265.883 28.3516C266.57 28.8359 267.211 29.3594 267.805 29.9219L270.289 26.9453H271.836V52ZM265.391 39.2266C265.391 38.3516 265.219 37.5078 264.875 36.6953C264.547 35.8672 264.094 35.1406 263.516 34.5156C262.938 33.875 262.258 33.3672 261.477 32.9922C260.711 32.6016 259.891 32.4062 259.016 32.4062C258.141 32.4062 257.312 32.5547 256.531 32.8516C255.766 33.1484 255.094 33.5859 254.516 34.1641C253.953 34.7422 253.508 35.4609 253.18 36.3203C252.852 37.1641 252.688 38.1328 252.688 39.2266C252.688 40.3203 252.852 41.2969 253.18 42.1562C253.508 43 253.953 43.7109 254.516 44.2891C255.094 44.8672 255.766 45.3047 256.531 45.6016C257.312 45.8984 258.141 46.0469 259.016 46.0469C259.891 46.0469 260.711 45.8594 261.477 45.4844C262.258 45.0938 262.938 44.5859 263.516 43.9609C264.094 43.3203 264.547 42.5938 264.875 41.7812C265.219 40.9531 265.391 40.1016 265.391 39.2266ZM294.594 39.2266C294.594 38.3516 294.422 37.5078 294.078 36.6953C293.75 35.8672 293.297 35.1406 292.719 34.5156C292.141 33.875 291.461 33.3672 290.68 32.9922C289.914 32.6016 289.094 32.4062 288.219 32.4062C287.344 32.4062 286.516 32.5547 285.734 32.8516C284.969 33.1484 284.297 33.5859 283.719 34.1641C283.156 34.7422 282.711 35.4609 282.383 36.3203C282.055 37.1641 281.891 38.1328 281.891 39.2266C281.891 40.2734 282.055 41.2188 282.383 42.0625C282.711 42.8906 283.156 43.6016 283.719 44.1953C284.297 44.7891 284.969 45.25 285.734 45.5781C286.516 45.8906 287.344 46.0469 288.219 46.0469C289.094 46.0469 289.914 45.8594 290.68 45.4844C291.461 45.0938 292.141 44.5859 292.719 43.9609C293.297 43.3203 293.75 42.5938 294.078 41.7812C294.422 40.9531 294.594 40.1016 294.594 39.2266ZM301.039 48.8359C301.039 50.6016 300.703 52.2578 300.031 53.8047C299.359 55.3516 298.438 56.7031 297.266 57.8594C296.109 59.0156 294.75 59.9297 293.188 60.6016C291.641 61.2734 289.984 61.6094 288.219 61.6094L285.008 61.5625V55.1641L288.172 55.2109C289.172 55.2109 290.023 55.0781 290.727 54.8125C291.43 54.5625 292.023 54.2109 292.508 53.7578C292.992 53.3203 293.375 52.8125 293.656 52.2344C293.953 51.6562 294.188 51.0469 294.359 50.4062C294.109 50.8125 293.75 51.1484 293.281 51.4141C292.812 51.6641 292.289 51.8672 291.711 52.0234C291.148 52.1953 290.555 52.3125 289.93 52.375C289.32 52.4375 288.75 52.4688 288.219 52.4688C286.453 52.4688 284.789 52.1641 283.227 51.5547C281.68 50.9453 280.32 50.0781 279.148 48.9531C277.992 47.8125 277.078 46.4219 276.406 44.7812C275.734 43.1406 275.398 41.2891 275.398 39.2266C275.398 37.3359 275.734 35.5781 276.406 33.9531C277.078 32.3281 277.992 30.9219 279.148 29.7344C280.32 28.5469 281.68 27.6172 283.227 26.9453C284.789 26.2734 286.453 25.9375 288.219 25.9375C289.031 25.9375 289.836 26.0391 290.633 26.2422C291.43 26.4453 292.203 26.7266 292.953 27.0859C293.703 27.4453 294.414 27.8672 295.086 28.3516C295.773 28.8359 296.414 29.3594 297.008 29.9219L299.492 26.9453H301.039V48.8359ZM330.242 52H328.695L326.211 48.5547C325.602 49.1016 324.953 49.6172 324.266 50.1016C323.594 50.5703 322.883 50.9844 322.133 51.3438C321.383 51.6875 320.609 51.9609 319.812 52.1641C319.031 52.3672 318.234 52.4688 317.422 52.4688C315.656 52.4688 313.992 52.1719 312.43 51.5781C310.883 50.9844 309.523 50.125 308.352 49C307.195 47.8594 306.281 46.4688 305.609 44.8281C304.938 43.1875 304.602 41.3203 304.602 39.2266C304.602 37.2734 304.938 35.4844 305.609 33.8594C306.281 32.2188 307.195 30.8125 308.352 29.6406C309.523 28.4688 310.883 27.5625 312.43 26.9219C313.992 26.2656 315.656 25.9375 317.422 25.9375C318.234 25.9375 319.039 26.0391 319.836 26.2422C320.633 26.4453 321.406 26.7266 322.156 27.0859C322.906 27.4453 323.617 27.8672 324.289 28.3516C324.977 28.8359 325.617 29.3594 326.211 29.9219L328.695 26.9453H330.242V52ZM323.797 39.2266C323.797 38.3516 323.625 37.5078 323.281 36.6953C322.953 35.8672 322.5 35.1406 321.922 34.5156C321.344 33.875 320.664 33.3672 319.883 32.9922C319.117 32.6016 318.297 32.4062 317.422 32.4062C316.547 32.4062 315.719 32.5547 314.938 32.8516C314.172 33.1484 313.5 33.5859 312.922 34.1641C312.359 34.7422 311.914 35.4609 311.586 36.3203C311.258 37.1641 311.094 38.1328 311.094 39.2266C311.094 40.3203 311.258 41.2969 311.586 42.1562C311.914 43 312.359 43.7109 312.922 44.2891C313.5 44.8672 314.172 45.3047 314.938 45.6016C315.719 45.8984 316.547 46.0469 317.422 46.0469C318.297 46.0469 319.117 45.8594 319.883 45.4844C320.664 45.0938 321.344 44.5859 321.922 43.9609C322.5 43.3203 322.953 42.5938 323.281 41.7812C323.625 40.9531 323.797 40.1016 323.797 39.2266ZM354.734 52H333.805L344.375 33.3203H333.805V26.9453H354.734L344.164 45.625H354.734V52ZM365.844 20.0781C365.844 20.6719 365.727 21.2266 365.492 21.7422C365.273 22.2578 364.969 22.7109 364.578 23.1016C364.188 23.4766 363.727 23.7812 363.195 24.0156C362.68 24.2344 362.125 24.3438 361.531 24.3438C360.938 24.3438 360.375 24.2344 359.844 24.0156C359.328 23.7812 358.875 23.4766 358.484 23.1016C358.109 22.7109 357.805 22.2578 357.57 21.7422C357.352 21.2266 357.242 20.6719 357.242 20.0781C357.242 19.5 357.352 18.9531 357.57 18.4375C357.805 17.9062 358.109 17.4531 358.484 17.0781C358.875 16.6875 359.328 16.3828 359.844 16.1641C360.375 15.9297 360.938 15.8125 361.531 15.8125C362.125 15.8125 362.68 15.9297 363.195 16.1641C363.727 16.3828 364.188 16.6875 364.578 17.0781C364.969 17.4531 365.273 17.9062 365.492 18.4375C365.727 18.9531 365.844 19.5 365.844 20.0781ZM364.742 52H358.297V26.8984H364.742V52ZM376.039 52H369.641V26.8984H371.188L373.297 29.3359C374.328 28.3984 375.492 27.6797 376.789 27.1797C378.102 26.6641 379.469 26.4062 380.891 26.4062C382.422 26.4062 383.867 26.7031 385.227 27.2969C386.586 27.875 387.773 28.6797 388.789 29.7109C389.805 30.7266 390.602 31.9219 391.18 33.2969C391.773 34.6562 392.07 36.1094 392.07 37.6562V52H385.672V37.6562C385.672 37 385.547 36.3828 385.297 35.8047C385.047 35.2109 384.703 34.6953 384.266 34.2578C383.828 33.8203 383.32 33.4766 382.742 33.2266C382.164 32.9766 381.547 32.8516 380.891 32.8516C380.219 32.8516 379.586 32.9766 378.992 33.2266C378.398 33.4766 377.883 33.8203 377.445 34.2578C377.008 34.6953 376.664 35.2109 376.414 35.8047C376.164 36.3828 376.039 37 376.039 37.6562V52ZM406.625 45.8594C406.875 45.9375 407.125 45.9922 407.375 46.0234C407.625 46.0391 407.875 46.0469 408.125 46.0469C408.75 46.0469 409.352 45.9609 409.93 45.7891C410.508 45.6172 411.047 45.375 411.547 45.0625C412.062 44.7344 412.516 44.3438 412.906 43.8906C413.312 43.4219 413.641 42.9062 413.891 42.3438L418.578 47.0547C417.984 47.8984 417.297 48.6562 416.516 49.3281C415.75 50 414.914 50.5703 414.008 51.0391C413.117 51.5078 412.172 51.8594 411.172 52.0938C410.188 52.3438 409.172 52.4688 408.125 52.4688C406.359 52.4688 404.695 52.1406 403.133 51.4844C401.586 50.8281 400.227 49.9141 399.055 48.7422C397.898 47.5703 396.984 46.1797 396.312 44.5703C395.641 42.9453 395.305 41.1641 395.305 39.2266C395.305 37.2422 395.641 35.4297 396.312 33.7891C396.984 32.1484 397.898 30.75 399.055 29.5938C400.227 28.4375 401.586 27.5391 403.133 26.8984C404.695 26.2578 406.359 25.9375 408.125 25.9375C409.172 25.9375 410.195 26.0625 411.195 26.3125C412.195 26.5625 413.141 26.9219 414.031 27.3906C414.938 27.8594 415.781 28.4375 416.562 29.125C417.344 29.7969 418.031 30.5547 418.625 31.3984L406.625 45.8594ZM409.906 32.6641C409.609 32.5547 409.312 32.4844 409.016 32.4531C408.734 32.4219 408.438 32.4062 408.125 32.4062C407.25 32.4062 406.422 32.5703 405.641 32.8984C404.875 33.2109 404.203 33.6641 403.625 34.2578C403.062 34.8516 402.617 35.5703 402.289 36.4141C401.961 37.2422 401.797 38.1797 401.797 39.2266C401.797 39.4609 401.805 39.7266 401.82 40.0234C401.852 40.3203 401.891 40.625 401.938 40.9375C402 41.2344 402.07 41.5234 402.148 41.8047C402.227 42.0859 402.328 42.3359 402.453 42.5547L409.906 32.6641ZM232.648 112H209.117V78.3906H215.844V105.273H232.648V112ZM253.18 109.07C252.664 109.539 252.109 109.984 251.516 110.406C250.938 110.812 250.328 111.172 249.688 111.484C249.047 111.781 248.383 112.016 247.695 112.188C247.023 112.375 246.336 112.469 245.633 112.469C244.086 112.469 242.633 112.195 241.273 111.648C239.914 111.102 238.719 110.328 237.688 109.328C236.672 108.312 235.867 107.086 235.273 105.648C234.695 104.195 234.406 102.57 234.406 100.773V86.8984H240.781V100.773C240.781 101.617 240.906 102.375 241.156 103.047C241.422 103.703 241.773 104.258 242.211 104.711C242.648 105.164 243.156 105.508 243.734 105.742C244.328 105.977 244.961 106.094 245.633 106.094C246.289 106.094 246.906 105.945 247.484 105.648C248.078 105.336 248.594 104.93 249.031 104.43C249.469 103.93 249.812 103.367 250.062 102.742C250.312 102.102 250.438 101.445 250.438 100.773V86.8984H256.836V112H255.289L253.18 109.07ZM269.281 80.0781C269.281 80.6719 269.164 81.2266 268.93 81.7422C268.711 82.2578 268.406 82.7109 268.016 83.1016C267.625 83.4766 267.164 83.7812 266.633 84.0156C266.117 84.2344 265.562 84.3438 264.969 84.3438C264.375 84.3438 263.812 84.2344 263.281 84.0156C262.766 83.7812 262.312 83.4766 261.922 83.1016C261.547 82.7109 261.242 82.2578 261.008 81.7422C260.789 81.2266 260.68 80.6719 260.68 80.0781C260.68 79.5 260.789 78.9531 261.008 78.4375C261.242 77.9062 261.547 77.4531 261.922 77.0781C262.312 76.6875 262.766 76.3828 263.281 76.1641C263.812 75.9297 264.375 75.8125 264.969 75.8125C265.562 75.8125 266.117 75.9297 266.633 76.1641C267.164 76.3828 267.625 76.6875 268.016 77.0781C268.406 77.4531 268.711 77.9062 268.93 78.4375C269.164 78.9531 269.281 79.5 269.281 80.0781ZM268.18 112H261.734V86.8984H268.18V112ZM292.672 112H271.742L282.312 93.3203H271.742V86.9453H292.672L282.102 105.625H292.672V112Z" fill="white"/>
<line x1="195.5" y1="15" x2="195.5" y2="112" stroke="white"/>
<path d="M169 65.5C169 98.7046 140.783 126 105.5 126C70.2165 126 42 98.7046 42 65.5C42 32.2954 70.2165 5 105.5 5C140.783 5 169 32.2954 169 65.5Z" stroke="white" stroke-width="10"/>
</svg>
