<?xml version="1.0" encoding="utf-8"?>
<!-- Generator: Adobe Illustrator 19.0.0, SVG Export Plug-In . SVG Version: 6.00 Build 0)  -->
<svg version="1.1" xmlns="http://www.w3.org/2000/svg" xmlns:xlink="http://www.w3.org/1999/xlink" x="0px" y="0px"
	 viewBox="0 0 1400 980" style="enable-background:new 0 0 1400 980;" xml:space="preserve">
<style type="text/css">
	.st0{fill:#FFCD2E;}
	.st1{fill:#F2B319;}
	.st2{fill:none;stroke:#381D07;stroke-width:5;stroke-linecap:round;stroke-linejoin:round;}
	.st3{fill:#381D07;}
</style>
<g id="Layer_1">
	<rect class="st0" width="1400" height="980"/>
	<path class="st1" d="M1365.6,888c0,27.6-22.4,50-50,50H84.4c-27.6,0-50-22.4-50-50V92c0-27.6,22.4-50,50-50h1231.1
		c27.6,0,50,22.4,50,50V888z"/>
	<g>
		<path class="st2" d="M1365.6,888c0,27.6-22.4,50-50,50H84.4c-27.6,0-50-22.4-50-50V92c0-27.6,22.4-50,50-50h1231.1
			c27.6,0,50,22.4,50,50V888z"/>
	</g>
</g>
<g id="Layer_2">
	<g>
		<g>
			<path class="st3" d="M599.5,320.8c-20.3,26-40.6,29.1-69.8,21.9c-15-3.7-54.4-26-87.7-24.3c-14.3,0.7-39.8,16.2-23.5,42.2
				c14.1,22.6,66.7,27.3,93.3,27.4C554.1,388,600.2,362.2,599.5,320.8z"/>
			<path class="st3" d="M231.5,320.8c20.3,26,40.6,29.1,69.8,21.9c15-3.7,54.4-26,87.7-24.3c14.3,0.7,39.8,16.2,23.5,42.2
				c-14.1,22.6-66.7,27.3-93.3,27.4C277,388,230.9,362.2,231.5,320.8z"/>
		</g>
		<g>
			<polygon class="st3" points="421.6,788.2 421.6,832.1 570.6,866.1 			"/>
			<polygon class="st3" points="409.5,788.2 409.5,832.1 260.5,866.1 			"/>
		</g>
		<g>
			<path class="st3" d="M451.8,113.9c-24.1,1.2-61,24.9-39.5,70.9c19,40.6,102.1,54.2,167.6,54.2C567.6,194,507.7,111.2,451.8,113.9
				z"/>
			<path class="st3" d="M379.2,113.9c24.1,1.2,61,24.9,39.5,70.9c-19,40.6-102.1,54.2-167.6,54.2C263.5,194,323.4,111.2,379.2,113.9
				z"/>
		</g>
		<g>
			<path class="st3" d="M591.3,545.9c2-3.1,5.2-9.7,5.2-16.1c0-6.4-1.4-14.8-6.8-20.2c-4-3.9-11.7-7.7-19.6-5.5c-11,3-17,11-17,11
				s16.2-4.9,21.6-2.1c6.1,3,9,11.2,8.5,15.1c-0.9,7.7-3.5,13.5-14.8,17c-14.1,4.4-28.4-3.1-44.1-12.8
				c-13.1-8.1-43.7-41.5-75.8-50.2c-13.8-3.8-42.8,3.2-35.4,32.9c6.5,25.9,55,46.6,80.3,54.8c34.2,11.1,76.9,5.3,96.3-21.2
				c0,0,0.4-0.5,1-1.5C590.8,546.7,591,546.3,591.3,545.9z"/>
			<path class="st3" d="M239.8,545.9c-2-3.1-5.2-9.7-5.2-16.1c0-6.4,1.4-14.8,6.8-20.2c4-3.9,11.7-7.7,19.6-5.5c11,3,17,11,17,11
				s-16.2-4.9-21.6-2.1c-6.1,3-9,11.2-8.5,15.1c0.9,7.7,3.5,13.5,14.8,17c14.1,4.4,28.4-3.1,44.1-12.8c13.1-8.1,43.7-41.5,75.8-50.2
				c13.8-3.8,42.8,3.2,35.4,32.9c-6.5,25.9-55,46.6-80.3,54.8c-34.2,11.1-76.9,5.3-96.3-21.2c0,0-0.4-0.5-1-1.5
				C240.3,546.7,240,546.3,239.8,545.9z"/>
		</g>
		<g>
			<path class="st3" d="M586.6,661.2c-2-2.9-6.1-6.2-11.2-7c-11.3-1.7-21,3.7-24.9,7.5c-3.9,3.9-8.5,8.6-8.5,15.2
				c0,4.7,0.6,10,8.5,15.2c8.1,5.3,32.6-1.1,22.9-18.2c3.6,14.1-16.8,15.5-20.4,10.1c-9.2-13.7,15.9-24.7,23.4-20.3
				c4.7,3.6,6.5,10.4,6.6,13.9c0.4,13.6-10.3,24.8-21.1,29.6c-19,8.5-38.6,9.8-56.3,4.2c-22-7-40.8-19.9-57.5-32.4
				c-11.5-8.6-21-20.5-26.7-15.2c-7.8,7.2,46.3,47.2,71.6,55.5c34.2,11.1,72.9,5.5,92.3-21c0,0,0.4-0.5,1-1.5
				c0.3-0.4,0.5-0.7,0.8-1.1c2-3.1,5.2-9.7,5.2-16.1C592.5,673.1,591,667.5,586.6,661.2z"/>
			<path class="st3" d="M244.5,661.2c2-2.9,6.1-6.2,11.2-7c11.3-1.7,21,3.7,24.9,7.5c3.9,3.9,8.5,8.6,8.5,15.2
				c0,4.7-0.6,10-8.5,15.2c-8.1,5.3-32.6-1.1-22.9-18.2c-3.6,14.1,16.8,15.5,20.4,10.1c9.2-13.7-15.9-24.7-23.4-20.3
				c-4.7,3.6-6.5,10.4-6.6,13.9c-0.4,13.6,10.3,24.8,21.1,29.6c19,8.5,38.6,9.8,56.3,4.2c22-7,40.8-19.9,57.5-32.4
				c11.5-8.6,21-20.5,26.7-15.2c7.8,7.2-46.3,47.2-71.6,55.5c-34.2,11.1-72.9,5.5-92.3-21c0,0-0.4-0.5-1-1.5
				c-0.3-0.4-0.5-0.7-0.8-1.1c-2-3.1-5.2-9.7-5.2-16.1C238.5,673.1,240.1,667.5,244.5,661.2z"/>
		</g>
	</g>
	<g>
		<g>
			<g>
				<path class="st3" d="M1168.5,357.3c-48.7,7.8-83.1-52.7-94.6-81.1c-16.6-41-28.7-91.1-66.5-127.9
					c-16.3-15.9-61.8-28.6-74.3,18.3c-10.9,40.8,40.4,106.8,69.1,137.7C1047.8,353.3,1121.2,402.8,1168.5,357.3z"/>
				<path class="st3" d="M704.5,355.7c48.7,8.1,83.4-52.1,95.2-80.5c16.9-40.9,29.3-90.9,67.4-127.4c16.4-15.7,62-28.1,74.2,18.8
					c10.7,40.9-41.1,106.5-70.1,137.2C825.2,352.5,751.4,401.5,704.5,355.7z"/>
			</g>
		</g>
		<g>
			<path class="st3" d="M1164.5,831.4c4.7-3.2,13.4-10.7,17.3-19.8c3.9-9.2,7.1-22,2.6-33.1c-3.3-7.9-11.9-18.1-24.7-19.8
				c-17.5-2.3-39.9,9.7-34.6,31.7c12.7-22,29.6-23.5,35.7-16.3c6.8,8.1,6,21.5,2.9,26.8c-6,10.4-13.2,17.1-31.5,15.2
				c-22.8-2.4-38.3-21.9-55.2-45.2c-24-33.2-37.1-85.8-77.7-117.9c-17.5-13.8-63.1-21.6-70.6,25.3c-6.5,40.9,50.1,100,81.2,127.2
				c42,36.8,106.5,54.4,150.3,28.4c0,0,0.9-0.5,2.4-1.5C1163.3,832.2,1163.9,831.8,1164.5,831.4z"/>
			<path class="st3" d="M708.5,831.4c-4.7-3.2-13.4-10.7-17.3-19.8c-3.9-9.2-7.1-22-2.6-33.1c3.3-7.9,11.9-18.1,24.7-19.8
				c17.5-2.3,39.9,9.7,34.6,31.7c-12.7-22-29.6-23.5-35.7-16.3c-6.8,8.1-6,21.5-2.9,26.8c6,10.4,13.2,17.1,31.5,15.2
				c22.8-2.4,38.3-21.9,55.2-45.2c24-33.2,37.1-85.8,77.7-117.9c17.5-13.8,63.1-21.6,70.6,25.3c6.5,40.9-50.1,100-81.2,127.2
				c-42,36.8-106.5,54.4-150.3,28.4c0,0-0.9-0.5-2.4-1.5C709.7,832.2,709.1,831.8,708.5,831.4z"/>
		</g>
		<g>
			<path class="st3" d="M737.1,618.2c2.2,4.3,15.2,16.7,15.2,16.7s-2.4-27.3,1-42.7c4.3-19.2,22.3-30.8,44-42.6
				c18.1-9.8,82.3-28.6,118.8-54c15-10.5,15.2-48.6,0.2-49.8c-35.5-2.8-115.6,19.3-141.9,43.2c-35.5,32.2-56.9,85.5-39.1,125.5
				c0,0,0.4,0.8,1,2.2C736.6,617.1,736.8,617.6,737.1,618.2z"/>
			<path class="st3" d="M1135.6,619.6c-2.3,4.3-15.3,16.6-15.3,16.6s2.6-27.3-0.7-42.7c-4.1-19.2-22.1-31-43.7-42.9
				c-18-9.9-82.1-29.2-118.4-54.8c-15-10.6-14.8-48.7,0.2-49.8c35.5-2.5,115.4,20.1,141.6,44.2c35.3,32.5,56.3,85.9,38.2,125.7
				c0,0-0.4,0.8-1,2.1C1136.2,618.5,1135.9,619.1,1135.6,619.6z"/>
		</g>
	</g>
</g>
</svg>
